<svg xmlns="http://www.w3.org/2000/svg" viewBox="0 0 1724 941" width="1724" height="941">
	<style>
		tspan { white-space:pre }
		.shp0 { fill: #d90000 } 
	</style>
	<g >
		<path fill-rule="evenodd" class="shp0" d="M640.33 13.18C641.88 13.41 642.4 14.07 642.15 15.5C641.97 16.6 641.64 17.73 641.43 18C641.22 18.27 640.34 17.82 639.48 17C638.62 16.18 637.97 14.91 638.04 14.18C638.11 13.42 639.08 13 640.33 13.18ZM702.83 25.98C703.2 25.97 704.96 26.64 706.75 27.48C708.54 28.32 710.56 30.14 711.25 31.53C711.94 32.92 712.84 34.04 713.25 34.03C713.66 34.01 714 35.35 714 37C714 40 714 40 708.51 39.75C703.39 39.52 702.94 39.3 701.99 36.5C701.43 34.85 700.97 32.49 700.98 31.25C700.99 30.01 701.26 28.32 701.58 27.5C701.91 26.68 702.47 25.99 702.83 25.98ZM991.86 29.98C992.76 29.97 994.07 30.54 994.77 31.23C995.46 31.93 996.03 34.08 996.03 36C996.03 37.92 995.49 40.06 994.82 40.75C994.15 41.44 992.79 42 991.8 42C990.64 42 989.8 41.02 989.44 39.25C989.13 37.74 988.7 35.6 988.49 34.5C988.28 33.4 988.58 31.94 989.16 31.25C989.75 30.56 990.96 29.99 991.86 29.98ZM733.9 34.2C736.04 34.45 736.54 35.07 736.75 37.75C736.91 39.8 736.54 41.01 735.75 41.03C735.06 41.05 733.49 40.15 732.25 39.03C730.87 37.78 730.25 36.4 730.65 35.45C731.05 34.47 732.27 34.01 733.9 34.2ZM1048.83 47.04C1050.3 47.06 1052.05 47.85 1052.72 48.79C1053.39 49.73 1053.95 51.96 1053.97 53.75C1053.99 55.54 1053.66 57 1053.25 57C1052.84 57 1052.44 58.69 1052.37 60.75C1052.3 62.82 1052.86 65.06 1053.62 65.75C1054.65 66.68 1054.73 67.45 1053.93 68.75C1053.35 69.71 1051.66 71.06 1050.18 71.75C1047.89 72.82 1046.88 72.71 1043.25 71C1040.33 69.63 1039 68.37 1039 67C1039 65.9 1039.67 64.78 1040.5 64.5C1041.72 64.09 1041.77 63.71 1040.75 62.45C1039.74 61.21 1039.79 60.39 1041 58.2C1041.82 56.72 1043.06 55.16 1043.75 54.75C1044.44 54.34 1045 53.1 1045 52C1045 50.9 1045.26 49.33 1045.58 48.5C1045.91 47.67 1047.36 47.02 1048.83 47.04ZM1190 48.03C1190.28 47.97 1191.17 48.61 1192 49.47C1193.34 50.87 1193.28 51.28 1191.51 53.27C1190.42 54.5 1189.52 55.62 1189.51 55.77C1189.5 55.93 1188.26 55.81 1186.75 55.52C1185.21 55.23 1184 54.34 1184 53.5C1184 52.67 1184.56 51.4 1185.25 50.67C1185.94 49.94 1187.17 49.08 1188 48.75C1188.83 48.42 1189.72 48.1 1190 48.03ZM665.77 56.8C666.46 57.73 667.03 59.06 667.02 59.75C667.01 60.44 665.88 61 664.5 61C663.13 61 661.66 60.31 661.25 59.47C660.76 58.48 661.19 57.45 662.5 56.52C664.26 55.26 664.65 55.3 665.77 56.8ZM1167.2 55C1168.26 55 1168.99 55.72 1168.97 56.75C1168.96 57.71 1168.17 59.3 1167.22 60.28C1166.28 61.26 1164.94 62.05 1164.25 62.03C1163.56 62.01 1162.91 60.97 1162.8 59.7C1162.69 58.44 1163.23 56.86 1164 56.2C1164.77 55.54 1166.21 55 1167.2 55ZM660 65C661.33 65 662 65.67 662 67C662 68.33 661.33 69 660 69C658.67 69 658 68.33 658 67C658 65.67 658.67 65 660 65ZM919.34 68.97C919.98 68.96 921.06 70.08 921.75 71.47C922.44 72.86 923 75.8 923 78C923 80.89 922.58 82 921.5 82C920.67 82 919.32 80.54 918.48 78.75C917.53 76.73 917.19 74.27 917.57 72.25C917.91 70.46 918.71 68.99 919.34 68.97ZM1681.08 74C1683.18 74 1684.01 74.49 1684.04 75.75C1684.07 76.71 1683.39 78.06 1682.54 78.75C1681.45 79.63 1680.42 79.71 1679 79C1677.9 78.45 1677 77.78 1677 77.5C1677 77.22 1677.26 76.33 1677.58 75.5C1677.92 74.64 1679.42 74 1681.08 74ZM1035.77 81.02C1036.17 81.02 1037.03 81.38 1037.68 81.81C1038.45 82.32 1038.63 83.86 1038.18 86.31C1037.81 88.36 1037.16 90.03 1036.75 90.02C1036.34 90.01 1035.44 90.25 1034.75 90.55C1034.03 90.86 1033.21 90.12 1032.81 88.8C1032.41 87.43 1032.72 85.38 1033.58 83.75C1034.39 82.24 1035.37 81.01 1035.77 81.02ZM1111.58 90C1112.36 90 1113.28 90.79 1113.63 91.75C1113.97 92.71 1113.75 94.51 1113.13 95.75C1112.51 96.99 1111.33 98 1110.5 98C1109.57 98 1109 97.06 1109 95.5C1109 94.13 1109.26 92.33 1109.58 91.5C1109.91 90.67 1110.81 90 1111.58 90ZM762.25 101.12C762.66 101.05 764.24 101.54 765.75 102.19C767.26 102.85 769.28 104.31 770.23 105.44C771.18 106.57 771.97 108.74 771.98 110.25C771.99 112.21 771.14 113.58 769 115C766.51 116.66 765.62 116.8 763.75 115.82C762.51 115.17 760.6 113.83 759.5 112.83C758.4 111.84 757.83 110.68 758.24 110.26C758.64 109.84 758.19 108.98 757.24 108.35C755.68 107.31 755.65 106.94 756.95 104.64C757.75 103.24 759.1 101.9 759.95 101.66C760.8 101.43 761.84 101.18 762.25 101.12ZM1266.25 115.03C1267.76 115.01 1269.18 115.34 1269.39 115.75C1269.61 116.16 1269.27 118.04 1268.64 119.92C1267.85 122.28 1266.26 124.03 1263.5 125.56C1261.3 126.77 1258.94 127.6 1258.25 127.39C1257.56 127.17 1257 125.88 1257 124.5C1257 123.13 1257.45 122 1258 122C1258.55 122 1259.29 120.99 1259.65 119.75C1260 118.51 1261.02 116.95 1261.9 116.28C1262.78 115.61 1264.74 115.05 1266.25 115.03ZM1036.68 119.04C1037.35 119.02 1037.78 120.18 1037.68 121.74C1037.56 123.5 1036.87 124.58 1035.75 124.74C1034.79 124.88 1033.78 124.33 1033.5 123.5C1033.22 122.67 1033.56 121.34 1034.25 120.54C1034.94 119.73 1036.03 119.06 1036.68 119.04ZM564.25 124C564.94 124 566.72 125.01 568.21 126.25C569.7 127.49 570.94 129.29 570.96 130.25C570.98 131.26 570.26 132.01 569.25 132.02C568.29 132.04 566.49 130.91 565.25 129.52C564.01 128.14 563 126.33 563 125.5C563 124.67 563.56 124 564.25 124ZM779 127C780.1 127 782.28 128.29 783.83 129.86C786.14 132.19 786.56 133.31 786.08 135.88C785.76 137.61 784.83 139.25 784 139.53C783.17 139.8 781.7 139.23 780.72 138.26C779.74 137.29 778.95 135.94 778.97 135.25C778.99 134.56 778.59 133.89 778.09 133.75C777.59 133.61 777.09 132.82 776.97 132C776.86 131.18 776.82 129.71 776.88 128.75C776.95 127.71 777.81 127 779 127ZM1001.59 128C1002.36 128 1003.04 128.56 1003.09 129.25C1003.14 129.94 1003.1 132.53 1003 135C1002.9 137.47 1002.48 139.72 1002.06 140C1001.64 140.28 1001.01 143.2 1000.65 146.5C1000.29 149.8 999.43 153.08 998.75 153.79C998.06 154.51 997.16 155.07 996.75 155.04C996.34 155.02 996.27 150.61 996.61 145.25C996.95 139.89 997.88 133.81 998.7 131.75C999.51 129.69 1000.81 128 1001.59 128ZM1244.75 138.08C1245.44 138.04 1246.45 139.35 1247 141C1247.81 143.43 1247.66 144.34 1246.25 145.8C1245.29 146.79 1243.04 148.59 1241.25 149.8C1239.46 151.01 1237.1 152 1236 152C1234.9 152 1233.78 151.32 1233.5 150.5C1233.22 149.68 1233.4 147.99 1233.9 146.75C1234.39 145.51 1236.08 143.32 1237.65 141.87C1239.22 140.43 1241.17 139 1242 138.7C1242.83 138.4 1244.06 138.12 1244.75 138.08ZM902.78 141.99C903.73 141.98 905.73 142.55 907.24 143.24C909.36 144.21 909.98 145.19 909.95 147.5C909.93 149.38 909.01 151.34 907.46 152.75C906.11 153.99 904.21 155.01 903.25 155.02C902.29 155.03 900.93 154.46 900.23 153.77C899.54 153.07 898.93 151.01 898.89 149.18C898.85 147.36 899.32 145 899.94 143.93C900.55 142.87 901.83 142 902.78 141.99ZM986 145.08C986.83 145.03 988.14 146.46 988.92 148.25C989.97 150.63 990.04 151.57 989.17 151.75C988.44 151.91 988.19 153.21 988.51 155.25C988.79 157.09 988.47 159.21 987.76 160.14C986.98 161.16 985.54 161.63 984 161.36C982.63 161.13 980.94 159.83 980.25 158.47C979.37 156.74 979.3 155.4 980 154C980.67 152.67 980.67 152 980 152C979.45 152 979.67 150.69 980.5 149.09C981.33 147.49 982.57 145.95 983.25 145.67C983.94 145.39 985.17 145.12 986 145.08ZM1654.25 148.15C1655.21 148.07 1656.22 148.68 1656.5 149.5C1656.78 150.32 1657 151.9 1657 153C1657 154.22 1656.12 155.25 1654.75 155.63C1653.51 155.98 1651.43 157.33 1650.11 158.63C1648.8 159.94 1646.66 161 1645.36 161C1644.06 161 1643 161.45 1643 162C1643 162.55 1643 163.22 1643 163.5C1643 163.78 1642.44 164.57 1641.75 165.26C1641.06 165.96 1639.26 167.08 1637.75 167.76C1636.24 168.44 1632.75 169 1630 169C1627.25 169 1624.78 168.55 1624.5 168C1624.22 167.45 1623.1 167 1622 167C1620.82 167 1619.94 166.28 1619.84 165.25C1619.76 164.29 1619.8 162.38 1619.94 161C1620.08 159.63 1621.9 156.81 1623.98 154.75C1626.73 152.03 1628.63 151 1630.89 151C1632.6 151 1634.14 150.55 1634.32 150C1634.54 149.33 1635.36 149.33 1636.82 150C1638.27 150.66 1640.26 150.67 1642.75 150.01C1644.81 149.46 1647.85 148.85 1649.5 148.66C1651.15 148.46 1653.29 148.23 1654.25 148.15ZM587.92 150.03C588.79 150.04 590.3 150.83 591.28 151.78C592.26 152.72 593.05 154.06 593.03 154.75C593.01 155.44 592.44 156.27 591.75 156.61C591.06 156.94 589.24 156.6 587.71 155.86C586.18 155.11 584.86 153.79 584.79 152.92C584.72 152.05 585.04 151.03 585.5 150.67C585.96 150.3 587.05 150.01 587.92 150.03ZM1063 150.18C1063.28 150.1 1064.94 151.26 1066.7 152.77C1069.23 154.92 1069.92 156.3 1069.95 159.25C1069.98 161.31 1069.55 163 1069 163C1068.45 163 1068 163.45 1068 164C1068 164.55 1068.9 165.22 1070 165.5C1071.1 165.78 1072 166.68 1072 167.5C1072 168.32 1071.55 169 1071 169C1070.45 169 1069.89 170.91 1069.5 177.5L1063.79 179C1059.58 180.11 1057.36 180.23 1055.29 179.47C1053.57 178.84 1051.57 176.74 1050.06 173.97C1048.45 171.02 1048.03 169.42 1048.81 169.25C1049.57 169.09 1050 166.83 1050 163C1050 159.7 1050.34 157 1050.75 157C1051.16 157 1052.4 155.66 1053.5 154.03C1054.94 151.9 1056.47 150.97 1059 150.71C1060.92 150.5 1062.72 150.27 1063 150.18ZM743.26 153.17C744.88 153.41 745.57 154.26 745.75 156.25C745.96 158.57 745.65 158.96 743.75 158.75C742.08 158.56 741.44 157.78 741.26 155.67C741.05 153.25 741.34 152.89 743.26 153.17ZM1141.25 155.04C1142.35 155.01 1143 155.75 1143 157C1143 158.1 1141.99 159.68 1140.75 160.51C1139.51 161.34 1138.16 162.01 1137.75 162.01C1137.34 162 1137 161.1 1137 160C1137 158.9 1137.56 157.34 1138.25 156.54C1138.94 155.73 1140.29 155.06 1141.25 155.04ZM1120.5 156.15C1121.05 156.08 1122.51 156.25 1123.75 156.51C1125.17 156.82 1126 157.74 1126 159C1126 160.1 1126.46 161.11 1127.02 161.25C1127.58 161.39 1128.05 162.85 1128.06 164.5C1128.07 166.15 1128.06 169.41 1128.04 171.75C1128 175.54 1127.65 176.17 1124.75 177.58C1122.63 178.62 1120.28 178.95 1118 178.55C1116.08 178.21 1113.49 177.05 1112.25 175.97C1111.01 174.89 1110 173.1 1110 172C1110 170.9 1110.34 170.01 1110.75 170.01C1111.16 170.02 1112.29 168.67 1113.25 167.01C1114.21 165.36 1115 162.43 1115 160.5C1115 157.64 1115.41 156.93 1117.25 156.64C1118.49 156.44 1119.95 156.22 1120.5 156.15ZM634.05 158.84C635.45 159.05 636.69 159.85 636.8 160.61C636.91 161.38 637.67 162.22 638.5 162.5C639.33 162.78 640 163.68 640 164.5C640 165.32 640.64 166.34 641.42 166.75C642.21 167.16 642.99 168.85 643.17 170.5C643.43 172.86 643.07 173.57 641.5 173.83C640.4 174.02 638.83 173.57 638 172.83C637.17 172.1 635.94 171.5 635.25 171.5C634.56 171.5 633.66 171.4 633.25 171.27C632.84 171.15 632.16 169.69 631.75 168.02C631.34 166.36 630.33 164.32 629.5 163.5C628.67 162.68 627.89 161.36 627.76 160.57C627.63 159.79 628.41 158.99 629.51 158.8C630.6 158.6 632.65 158.62 634.05 158.84ZM1311.11 159C1312.23 159 1313.02 159.72 1313.04 160.75C1313.07 161.71 1312.37 163.18 1311.5 164C1310.08 165.34 1309.71 165.31 1308.2 163.8C1306.75 162.35 1306.7 161.87 1307.86 160.55C1308.61 159.7 1310.07 159 1311.11 159ZM866.75 164.02C867.44 164.01 869.45 164.79 871.23 165.75C873.01 166.71 875.03 168.06 875.73 168.75C876.43 169.44 876.99 170.34 876.98 170.75C876.97 171.16 875.96 172.96 874.73 174.74C873.5 176.53 872.05 178 871.5 178.01C870.95 178.03 869.02 176.57 867.22 174.77C865.42 172.97 863.69 170.15 863.39 168.5C863.03 166.55 863.3 165.24 864.17 164.77C864.9 164.36 866.06 164.02 866.75 164.02ZM1010 165.99C1010.27 165.99 1011.51 166.66 1012.75 167.49C1014.25 168.5 1015 170 1015 172C1015 173.65 1013.92 176.91 1012.61 179.25C1011.13 181.86 1009.4 183.6 1008.11 183.75C1006.5 183.94 1005.82 183.28 1005.25 180.98C1004.84 179.31 1004.16 177.96 1003.75 177.98C1003.34 177.99 1003.01 176.31 1003.02 174.25C1003.03 171.16 1003.61 170.1 1006.27 168.25C1008.05 167.01 1009.73 165.99 1010 165.99ZM1395.5 168.44C1396.05 168.56 1396.61 169.42 1396.75 170.33C1396.89 171.25 1395.26 173.69 1393.14 175.75C1391.02 177.81 1388.32 180.06 1387.14 180.75C1385.96 181.44 1383.88 182 1382.5 182C1380.79 182 1380 181.45 1380 180.25C1380 179.29 1382.29 176.47 1385.09 174C1387.9 171.53 1391.16 169.21 1392.35 168.86C1393.53 168.5 1394.95 168.31 1395.5 168.44ZM891.21 176.81C893.05 177.03 894.65 177.84 894.77 178.61C894.9 179.37 895.9 180.56 897 181.25C898.11 181.94 899.01 183.29 899 184.25C899 185.21 898.55 186 898 186C897.45 186 897 186.9 897 188C897 189.33 896.33 190 895 190C893.9 190 892.84 190.56 892.65 191.25C892.39 192.15 891.76 192.01 890.4 190.75C889.35 189.78 888.15 189.33 887.72 189.75C887.29 190.16 886.96 189.49 886.97 188.25C886.99 186.9 886.4 186 885.5 186C884.67 186 884 185.78 884 185.5C884 185.22 883.77 184.32 883.5 183.5C883.2 182.61 883.61 182 884.5 182C885.35 182 885.91 181.22 885.8 180.2C885.69 179.21 886.11 177.95 886.74 177.4C887.36 176.85 889.38 176.59 891.21 176.81ZM1444 180.05C1444.28 180.04 1445.02 180.42 1445.66 180.89C1446.29 181.36 1446.74 182.59 1446.65 183.62C1446.54 184.89 1445.6 185.58 1443.74 185.75C1441.86 185.92 1441 185.53 1441 184.5C1441 183.68 1441.56 182.34 1442.25 181.54C1442.94 180.73 1443.72 180.07 1444 180.05ZM1097.69 188.24C1100.27 188.38 1103.01 189.18 1103.8 190C1104.58 190.82 1105.06 192.73 1104.86 194.24C1104.66 195.75 1104.93 196.98 1105.45 196.99C1105.97 197 1105.85 197.56 1105.18 198.25C1104.51 198.94 1103.96 200.18 1103.94 201C1103.93 201.82 1102.92 203.31 1101.71 204.29C1100.49 205.27 1098.71 206.29 1097.75 206.54C1096.67 206.82 1094.67 205.67 1092.5 203.5C1090.58 201.57 1089 199.44 1089 198.75C1089.01 198.06 1089.91 196.04 1091 194.25C1092.1 192.46 1093 190.32 1093.01 189.49C1093.01 188.33 1094.08 188.04 1097.69 188.24ZM1264.63 190C1265.35 190 1265.79 191.14 1265.68 192.75C1265.55 194.8 1264.92 195.56 1263.25 195.75C1261.71 195.92 1260.94 195.43 1260.8 194.2C1260.69 193.21 1261.23 191.86 1262 191.2C1262.77 190.54 1263.95 190 1264.63 190ZM1423.68 194C1424.48 194 1425 195.19 1425 197C1425 199.15 1423.96 200.99 1421.33 203.5C1419.32 205.43 1417.07 207 1416.33 207C1415.6 207 1415 206.32 1415 205.5C1415 204.68 1415.56 202.99 1416.25 201.75C1416.94 200.51 1418.59 198.26 1419.93 196.75C1421.27 195.24 1422.96 194 1423.68 194ZM996 195C997.1 195 998.35 195.79 998.79 196.75C999.22 197.71 999.44 201.65 999.28 205.5C999.12 209.35 998.8 214.97 998.57 218C998.34 221.03 997.66 224.74 997.07 226.25C996.48 227.76 995.33 229.68 994.5 230.5C993.67 231.32 992.55 231.78 992 231.5C991.37 231.18 991.22 226.52 991.6 218.75C991.93 212.01 992.61 206.05 993.11 205.5C993.62 204.95 994.03 202.36 994.02 199.75C994 195.66 994.28 195 996 195ZM1069.5 197C1070.33 197 1071.22 197.68 1071.5 198.5C1071.78 199.32 1071.78 200.45 1071.5 201C1071.22 201.55 1070.33 201.78 1069.5 201.5C1068.67 201.22 1068 200.1 1068 199C1068 197.89 1068.67 197 1069.5 197ZM1220.8 203.99C1221.73 203.99 1223.51 204.66 1224.75 205.49C1226.34 206.56 1226.99 207.96 1226.95 210.25C1226.93 212.04 1226.13 215.07 1225.19 217C1224.12 219.19 1222.08 221.15 1219.74 222.25C1217.68 223.21 1216 224.68 1216 225.5C1216 226.32 1214.88 227.45 1213.5 228C1211.82 228.67 1209.94 228.66 1207.75 227.96C1205.96 227.38 1203.96 226.15 1203.29 225.21C1202.63 224.27 1202.33 222.6 1202.64 221.5C1202.95 220.4 1204.64 218.15 1206.4 216.5C1208.16 214.85 1210.25 212.01 1211.05 210.18C1212 208.01 1213.4 206.67 1215.09 206.3C1216.52 206 1218.01 205.35 1218.39 204.87C1218.78 204.39 1219.86 204 1220.8 203.99ZM1102.25 211.1C1103.76 211.04 1105.22 211.45 1105.5 212C1105.78 212.55 1106.56 212.76 1107.25 212.48C1107.94 212.19 1109.33 212.52 1110.34 213.23C1111.94 214.33 1112.04 215.02 1111.12 218.5C1110.32 221.53 1110.36 222.68 1111.28 223.22C1111.95 223.62 1112.72 226.61 1113 229.87C1113.49 235.71 1113.44 235.87 1109.77 239.15C1107.73 240.99 1106.04 243.06 1106.02 243.75C1106.01 244.44 1105.1 245.22 1104 245.5C1102.9 245.78 1102 246.45 1102 247C1102 247.55 1101.29 248.68 1100.43 249.5C1099.56 250.32 1097.09 251 1094.93 251C1092.77 251 1089.88 250.55 1088.5 250C1086.68 249.27 1086.14 248.45 1086.5 247C1086.78 245.9 1086.55 244.78 1086 244.5C1085.45 244.22 1085 243.1 1085 242C1085 240.9 1085.56 239.12 1086.25 238.05C1087.25 236.49 1087.25 235.34 1086.24 232.3C1085.08 228.79 1085.15 228.35 1087.24 226.5C1088.56 225.33 1089.4 223.57 1089.25 222.25C1089.11 221.01 1089.45 220 1090 220C1090.55 220 1091 219.55 1091 219C1091 218.45 1091.81 217.04 1092.8 215.87C1093.79 214.7 1095.7 213.17 1097.05 212.47C1098.4 211.77 1100.74 211.15 1102.25 211.1ZM734.5 212C735.88 212 737.34 212.6 737.75 213.33C738.16 214.05 739.25 214.94 740.18 215.29C741.1 215.65 741.89 216.85 741.93 217.97C741.98 219.36 741.37 220 740 220C738.9 220 736.63 218.54 734.97 216.75C733.3 214.96 731.95 213.16 731.97 212.75C731.98 212.34 733.13 212 734.5 212ZM668.25 213.05C668.94 213.07 671.07 213.86 672.99 214.8C674.9 215.73 676.65 217.4 676.87 218.5C677.24 220.32 676.93 220.43 673.39 219.73C671.25 219.31 668.92 218.41 668.21 217.73C667.49 217.05 666.93 215.71 666.96 214.75C666.98 213.79 667.56 213.02 668.25 213.05ZM1155.78 213C1156.74 213 1157.52 213.71 1157.51 214.57C1157.51 215.43 1156.28 216.89 1154.79 217.82C1153.31 218.74 1151.73 219.17 1151.29 218.78C1150.86 218.38 1151.3 216.91 1152.27 215.53C1153.24 214.14 1154.82 213 1155.78 213ZM1143.17 217C1146.99 217 1148.52 217.52 1150.5 219.5C1151.88 220.88 1153 223.13 1153 224.5C1153 225.88 1152.44 227.16 1151.75 227.36C1151.06 227.56 1149.6 229.55 1148.5 231.78C1146.98 234.88 1145.79 235.96 1143.5 236.35C1141.85 236.63 1139.26 237.11 1137.75 237.43C1136.19 237.75 1134.33 237.46 1133.45 236.75C1132.6 236.06 1131.02 234.6 1129.93 233.5C1128.85 232.4 1127.96 230.82 1127.97 230C1127.97 229.18 1128.42 227.25 1128.95 225.73C1129.48 224.2 1130.73 222.76 1131.71 222.51C1132.69 222.27 1134.59 220.93 1135.92 219.54C1137.86 217.51 1139.3 217 1143.17 217ZM710.17 219C711.8 219 713.21 219.64 713.5 220.5C713.77 221.32 714.9 222 716 222C717.56 222 718 222.67 718 225C718 227.72 717.69 228 714.75 228C712.68 228.01 710.5 227.1 708.75 225.5C707.24 224.13 705.92 222.4 705.83 221.67C705.74 220.93 706.04 220.03 706.5 219.67C706.96 219.3 708.61 219 710.17 219ZM1578.53 220.03C1579.99 220.01 1580.55 220.63 1580.53 222.25C1580.51 224.13 1579.89 224.54 1576.75 224.75C1574.09 224.93 1572.95 224.58 1572.83 223.55C1572.74 222.75 1573.52 221.64 1574.58 221.08C1575.64 220.52 1577.41 220.05 1578.53 220.03ZM983.67 230.72C987.91 231.14 990.05 231.91 991.5 233.51C992.6 234.72 994.13 236.79 994.89 238.11C995.66 239.42 996.21 242.75 996.13 245.5C996.05 248.25 995.58 250.72 995.1 251C994.62 251.28 993.5 253.19 992.61 255.25C991.44 257.99 990.39 259 988.75 259.01C987.51 259.02 985.09 259.58 983.37 260.26C980.66 261.33 980.02 261.26 978.62 259.75C977.73 258.79 976.64 258 976.2 258C975.76 258 974.97 258.43 974.45 258.96C973.93 259.49 972.6 259.7 971.5 259.43C970.4 259.16 968.6 257.36 967.5 255.44C966.4 253.51 965.27 251.95 965 251.97C964.73 251.99 964.39 249.53 964.25 246.5C964.11 243.48 964.45 240.78 965 240.5C965.55 240.22 966 239.32 966 238.5C966 237.68 966.79 236.16 967.75 235.14C968.71 234.12 970.46 233.37 971.64 233.48C972.81 233.6 974.69 232.89 975.81 231.91C977.46 230.47 978.94 230.24 983.67 230.72ZM1399 230C1400.1 230 1401.22 230.68 1401.5 231.5C1401.78 232.32 1401.44 233.7 1400.75 234.54C1400.06 235.39 1398.94 236.07 1398.25 236.04C1397.54 236.02 1397 234.71 1397 233C1397 230.67 1397.44 230 1399 230ZM1547 230C1548.65 230 1550 230.34 1550 230.75C1550.01 231.16 1549.11 232.06 1548 232.75C1546.9 233.44 1545.55 233.78 1545 233.5C1544.45 233.22 1544 232.32 1544 231.5C1544 230.5 1545 230 1547 230ZM1201.75 235.14C1202.99 235.06 1204.67 235.22 1205.5 235.5C1206.39 235.8 1207 237.22 1207 239C1207 240.77 1206.26 242.51 1205.18 243.25C1204.19 243.94 1203.06 245.29 1202.68 246.25C1202.31 247.21 1201.33 248 1200.5 248C1199.67 248 1199 248.68 1199 249.5C1199 250.35 1198.02 251.06 1196.75 251.14C1195.51 251.22 1193.38 251.31 1192 251.34C1189.74 251.4 1189.53 251.07 1189.86 247.95C1190.06 246.05 1191.09 243.51 1192.14 242.3C1193.2 241.09 1194.27 239.63 1194.53 239.05C1194.79 238.47 1195 237.55 1195 237C1195 236.45 1196.01 235.84 1197.25 235.64C1198.49 235.44 1200.51 235.21 1201.75 235.14ZM844.75 237.03C845.99 237.01 847.34 237.6 847.75 238.33C848.16 239.07 850.65 240.75 853.27 242.08C857.07 244.01 858.04 245.01 858.03 247C858.01 248.92 857.25 249.76 854.75 250.6C852.96 251.21 850.83 251.99 850 252.34C849.15 252.7 846.44 251.68 843.75 249.99C839.63 247.4 838.97 246.52 838.77 243.36C838.6 240.68 839.06 239.37 840.52 238.39C841.61 237.66 843.51 237.05 844.75 237.03ZM1467.2 238C1467.64 238 1468.2 238.56 1468.45 239.25C1468.7 239.94 1468.62 240.84 1468.28 241.25C1467.94 241.66 1466.84 242 1465.83 242C1464.83 242 1463.91 241.64 1463.8 241.2C1463.69 240.76 1464.23 239.86 1465 239.2C1465.77 238.54 1466.76 238 1467.2 238ZM935.05 239C936.91 239 937.19 239.71 937.57 245.5C937.81 249.07 937.77 252.45 937.5 253C937.23 253.55 936.55 254 936 254C935.45 254 934.33 252.43 933.5 250.5C932.67 248.57 932.32 246.44 932.7 245.75C933.09 245.06 933.31 243.26 933.18 241.75C933.01 239.56 933.39 239 935.05 239ZM899.5 242C900.33 242 901.67 243.57 902.5 245.5C903.33 247.43 904 249.9 904 251C904 252.1 903.55 253 903 253C902.45 253 901.1 251.54 900 249.75C898.91 247.96 898.01 245.49 898 244.25C898 242.92 898.61 242 899.5 242ZM655.82 244.35C657.84 244.7 660.11 245.56 660.86 246.25C661.61 246.94 661.95 248.06 661.61 248.75C661.12 249.75 660.14 249.74 656.75 248.71C653.89 247.83 652.44 246.8 652.32 245.56C652.17 243.96 652.64 243.79 655.82 244.35ZM1174.25 247.04C1175.21 247.02 1176.01 247.56 1176.02 248.25C1176.04 248.94 1175.36 251.19 1174.52 253.25C1173.33 256.18 1172.45 257 1170.5 257C1169.13 257 1168 256.55 1168 256C1168 255.45 1168.39 253.86 1168.87 252.47C1169.34 251.08 1170.36 249.3 1171.12 248.51C1171.88 247.72 1173.29 247.06 1174.25 247.04ZM885.25 251.07C886.76 251.03 887.99 251.34 887.97 251.75C887.95 252.16 889.53 253.4 891.48 254.5C893.42 255.6 894.86 256.95 894.68 257.5C894.49 258.05 894.94 259.06 895.67 259.75C896.4 260.44 897 262.13 897 263.5C897 264.88 896.55 266 896 266C895.45 266 895 266.68 895 267.5C895 268.33 894.11 269 893 269C891.9 269 890.33 269.23 889.5 269.5C888.46 269.85 888 271.39 888 274.5C888 278.14 888.52 279.47 890.75 281.47C892.26 282.83 894.29 283.95 895.25 283.97C896.21 283.99 896.98 283.66 896.96 283.25C896.94 282.84 898.18 281.96 899.71 281.29C901.24 280.63 903.8 279.95 905.4 279.79C907.05 279.63 908.77 278.64 909.4 277.5C910 276.4 910.95 275.19 911.5 274.82C912.05 274.44 915.97 274.22 920.2 274.32C927.73 274.5 927.91 274.44 928.2 272C928.39 270.4 929.22 269.39 930.5 269.2C931.6 269.03 933.85 269.59 935.5 270.43C937.98 271.7 938.67 272.87 939.5 277.2C940.27 281.25 941.06 282.71 943 283.65C945.03 284.64 946.16 284.59 949 283.37C950.92 282.55 952.81 281.34 953.2 280.69C953.74 279.78 954.72 279.79 957.45 280.75C959.4 281.44 962.13 281.77 963.5 281.5C965.37 281.13 966 280.37 966 278.5C966 276.12 966.28 276 977.5 276L977.25 271.5C977.06 268.06 977.35 267 978.5 267C979.33 267 980.23 267.68 980.5 268.5C980.77 269.32 981 271.8 981 274C981 277.11 981.67 278.67 984 281C985.65 282.65 987.34 284.01 987.75 284.02C988.16 284.03 989.4 283.38 990.5 282.58C992.21 281.33 992.32 280.82 991.25 279.06C990.56 277.93 989.44 276.14 988.75 275.1C987.72 273.53 987.8 272.75 989.25 270.6C990.77 268.35 991.62 268.03 995.61 268.25C998.9 268.43 1000.45 268.07 1001 267C1001.42 266.18 1002.38 264.24 1003.13 262.71C1004.38 260.17 1004.9 259.95 1009 260.29C1011.48 260.5 1014.51 261.2 1015.75 261.84C1016.99 262.48 1019.13 263 1020.5 263C1021.88 263 1024.11 264.01 1025.46 265.25C1026.81 266.49 1027.94 268.29 1027.96 269.25C1027.99 270.71 1028.41 270.84 1030.5 270C1031.88 269.45 1034.13 269 1035.5 269C1037.33 269 1038 268.47 1038 267C1038 265.9 1038.45 264.77 1039 264.5C1039.55 264.23 1039.75 262.99 1039.44 261.75C1038.99 259.9 1039.48 259.28 1042.19 258.26C1044.01 257.58 1046.51 257.02 1047.75 257.01C1048.99 257.01 1050 257.45 1050 258C1050 258.55 1051.24 258.99 1052.75 258.97C1054.26 258.96 1055.88 259.29 1056.35 259.72C1056.83 260.15 1058.85 261.06 1060.85 261.73C1062.86 262.41 1065.51 262.98 1066.75 262.98C1068.18 262.99 1069.04 263.64 1069.12 264.75C1069.18 265.71 1069.18 267.29 1069.12 268.25C1069.05 269.21 1069.9 270.45 1071 271C1072.36 271.68 1072.86 272.72 1072.58 274.25C1072.3 275.76 1073.04 277.35 1074.83 279.06C1076.3 280.46 1078.29 281.93 1079.25 282.31C1080.51 282.81 1081.21 284.68 1081.75 289.01C1082.46 294.73 1082.64 295.03 1085.25 295.01C1086.76 295.01 1088.59 295.56 1089.31 296.25C1090.02 296.94 1090.92 298.29 1091.31 299.25C1091.78 300.45 1093.1 301 1095.5 301C1097.42 301 1100.13 301.45 1101.5 302C1102.88 302.55 1104 303.68 1104 304.5C1104 305.32 1104.79 306.07 1105.75 306.16C1106.71 306.24 1108.51 306.24 1109.75 306.16C1110.99 306.07 1112 306.56 1112.01 307.25C1112.01 307.94 1113.25 309.07 1114.76 309.76C1116.27 310.45 1118.06 311.02 1118.75 311.01C1119.44 311 1121.01 311.56 1122.25 312.25C1123.49 312.94 1124.63 313.5 1124.79 313.5C1124.95 313.5 1124.39 315.19 1123.54 317.25C1122.69 319.31 1121.55 321 1121 321C1120.45 321 1120 322.13 1120 323.5C1120 325.18 1119.43 326.03 1118.25 326.08C1117.27 326.13 1118.26 327 1120.5 328.05C1122.7 329.1 1125.51 329.96 1126.75 329.97C1127.99 329.99 1129.22 330.45 1129.5 331C1129.78 331.55 1132.03 332 1134.5 332C1137.83 332 1139 332.39 1139 333.5C1139 334.61 1140.17 335 1143.5 335C1147.3 335 1148.59 335.56 1151.75 338.58C1153.81 340.55 1156.51 342.35 1157.75 342.58C1159.06 342.82 1160.01 343.73 1160.02 344.75C1160.03 345.71 1159.46 347.04 1158.77 347.71C1157.75 348.68 1157.79 349.25 1159 350.6C1159.84 351.55 1160.37 353.66 1160.2 355.39C1160.04 357.1 1159.36 358.81 1158.7 359.19C1157.86 359.68 1158.16 360.42 1159.71 361.69C1160.92 362.69 1161.94 364.29 1161.96 365.25C1161.98 366.21 1162.67 367 1163.5 367C1164.33 367 1165.16 366.44 1165.36 365.75C1165.55 365.06 1167.46 364.17 1169.61 363.77C1172.02 363.32 1174.7 363.51 1176.67 364.27C1178.84 365.11 1180.18 366.52 1180.92 368.75C1181.82 371.45 1182.5 372 1185 372C1187.67 372 1188 372.33 1188 375C1188 376.65 1188.45 378.23 1189 378.5C1189.55 378.77 1190 379.9 1190 381C1190 382.1 1189.01 384.46 1187.81 386.25C1186.61 388.04 1185.27 390.85 1184.84 392.5C1184.09 395.38 1183.78 395.53 1176.78 396.28C1172.78 396.71 1168.83 397.69 1168 398.45C1166.68 399.67 1166.77 399.91 1168.75 400.42C1169.99 400.74 1171.06 401.34 1171.13 401.75C1171.2 402.16 1171.42 403.63 1171.61 405C1171.8 406.38 1172.2 409.19 1172.48 411.25C1172.78 413.43 1172.58 415 1172 415C1171.45 415 1170.99 415.56 1170.98 416.25C1170.96 416.94 1172.2 417.83 1173.73 418.22C1175.25 418.62 1177.17 419.39 1178 419.94C1179.06 420.63 1179.46 422.49 1179.35 426.21C1179.27 429.13 1178.71 431.61 1178.1 431.75C1177.5 431.89 1177.02 433.69 1177.04 435.75C1177.07 437.81 1176.51 440.04 1175.79 440.71C1174.84 441.61 1172.95 441.67 1168.5 440.97C1165.2 440.44 1162.16 440.01 1161.75 440.01C1161.34 440 1161 441.13 1161 442.5C1161 444.06 1161.57 445 1162.5 445C1163.33 445 1164 445.45 1164 446C1164 446.55 1163.66 446.99 1163.25 446.97C1162.84 446.95 1161.38 447.87 1160 449C1158.63 450.13 1156.71 451.05 1155.75 451.03C1154.39 451.01 1154 451.83 1154.02 454.75C1154.03 456.81 1153.46 459.36 1152.77 460.4C1151.95 461.63 1150.88 462.07 1149.75 461.65C1148.61 461.23 1147.03 461.89 1145.25 463.52C1142.95 465.64 1142.74 466.2 1144 466.96C1144.83 467.46 1147.97 468.16 1151 468.52C1154.03 468.87 1157.51 469.8 1158.75 470.58C1160.1 471.44 1161 472.99 1161 474.5C1161 475.88 1161.45 477 1162 477C1162.55 477 1163 477.68 1163 478.5C1163 479.32 1163.67 480.23 1164.5 480.5C1165.33 480.77 1166 481.9 1166 483C1166 484.1 1164.88 486.13 1163.5 487.5C1161.83 489.17 1160.47 489.75 1159.41 489.25C1157.95 488.56 1157.95 488.78 1159.41 491.75C1160.28 493.54 1160.78 495.68 1160.5 496.5C1160.22 497.32 1160.56 499 1161.25 500.21C1161.94 501.43 1163.06 503 1163.75 503.71C1164.44 504.42 1165.01 505.56 1165.03 506.25C1165.05 506.97 1165.58 506.75 1166.28 505.71C1167.01 504.64 1168.5 504.02 1170 504.17C1171.38 504.31 1173.96 503.65 1175.75 502.71C1177.54 501.77 1179.34 501.17 1179.75 501.37C1180.16 501.57 1180.84 502.92 1181.25 504.37C1181.71 505.97 1181.52 507.88 1180.76 509.25C1180.08 510.49 1179.47 512.17 1179.41 513C1179.35 513.83 1179.23 515.51 1179.15 516.75C1179.05 518.28 1178.36 519 1177 519C1175.9 519 1173.99 520.36 1172.75 522.03C1171.51 523.7 1169.83 525.26 1169 525.49C1168.17 525.73 1167.2 527.18 1166.82 528.71C1166.4 530.47 1166.67 532.33 1167.57 533.75C1168.36 534.99 1169.11 537.53 1169.25 539.4C1169.39 541.27 1169.85 543.19 1170.28 543.65C1170.71 544.12 1171.04 545.29 1171.03 546.25C1171.01 547.21 1171.56 548.06 1172.25 548.14C1172.94 548.22 1175.08 548.19 1177 548.09C1178.92 547.98 1181.25 548.48 1182.18 549.2C1183.4 550.14 1183.94 552.41 1184.49 564.5L1180.5 564.55C1178.3 564.58 1174.59 565.59 1172.25 566.8C1168.78 568.59 1167.72 568.77 1166.48 567.75C1165.64 567.06 1164.85 566.73 1164.73 567C1164.6 567.27 1163.94 568.51 1163.25 569.75C1162.56 570.99 1162 572.9 1162 574C1162 575.23 1161.32 576.01 1160.25 576.03C1159.29 576.05 1157.6 576.73 1156.5 577.55C1154.56 578.99 1154.59 579.03 1157.25 579.02C1158.82 579.01 1160.22 579.65 1160.5 580.5C1160.78 581.33 1162.14 582.56 1163.53 583.25C1164.92 583.94 1166.06 585.17 1166.07 586C1166.08 586.83 1165.51 588.01 1164.79 588.64C1164.08 589.27 1162.62 589.95 1161.55 590.14C1160.45 590.34 1159.33 591.59 1159 593C1158.43 595.39 1158.04 595.51 1150.45 595.69C1146.08 595.8 1141.49 595.91 1140.25 595.94C1139.01 595.97 1137.98 596.56 1137.96 597.25C1137.94 597.94 1137.15 599.05 1136.21 599.72C1135.27 600.39 1133.04 600.95 1131.25 600.97C1129.46 600.99 1128 600.55 1128 600C1128 599.45 1127.33 599 1126.5 599C1125.67 599 1125 599.45 1125 600C1125 600.55 1122.84 601 1120.2 601C1117.56 601 1114.85 601.56 1114.18 602.25C1113.51 602.94 1112.98 604.85 1113.01 606.5C1113.05 609.42 1112.96 609.48 1109.77 608.54C1107.97 608.01 1102.15 607.56 1096.83 607.54C1088.68 607.51 1087 607.77 1086.08 609.25C1085.18 610.71 1085.41 611.08 1087.5 611.5C1089.01 611.8 1090.01 612.7 1090.03 613.75C1090.05 614.99 1088.66 615.9 1085.28 616.88C1081.64 617.93 1079.96 617.99 1078.25 617.13C1076.42 616.21 1076 616.28 1076 617.5C1076 618.33 1075.11 619 1074 619C1072.9 619 1070.86 618.44 1069.47 617.75C1068.08 617.06 1066.96 616.16 1066.97 615.75C1066.99 615.34 1065.42 615 1063.5 615C1061.58 615 1059.78 614.55 1059.5 614C1059.22 613.44 1055 613 1050 613C1044.67 613 1041 612.59 1041 612C1041 611.45 1040.1 610.1 1039 609C1037.9 607.9 1037 606.55 1037 606C1037 605.45 1037.67 605 1038.5 605C1039.33 605 1039.98 604.21 1039.96 603.25C1039.94 602.29 1039.15 600.95 1038.21 600.28C1037.27 599.61 1034.36 599.05 1031.75 599.03C1029.05 599.01 1026.68 598.46 1026.25 597.75C1025.84 597.06 1025.5 595.6 1025.5 594.5C1025.5 592.88 1024.74 592.45 1021.5 592.22C1019.3 592.06 1017.07 592.4 1016.55 592.97C1016.03 593.53 1014.6 594 1013.37 594C1012.15 594 1010.47 594.67 1009.64 595.5C1008.82 596.33 1007.77 596.99 1007.32 596.97C1006.87 596.96 1005.94 598.08 1005.25 599.47C1004.19 601.61 1004.31 602.82 1006 607.25C1007.1 610.14 1008 613.96 1008 615.75C1008 617.57 1007.23 619.7 1006.25 620.59C1005.09 621.65 1003.66 621.96 1002 621.52C1000.63 621.15 999.39 620.44 999.25 619.93C999.11 619.42 998.33 619 997.5 619C996.67 619 996 618.33 996 617.5C996 616.5 995 616 993 616C990.61 616 989.75 615.39 988.75 613C987.89 610.92 986.81 610 985.25 610C983.63 610 983.11 609.51 983.39 608.25C983.63 607.14 982.72 605.86 980.89 604.75C979.3 603.79 977.89 602.98 977.75 602.96C977.61 602.94 976.83 604.31 976 606C974.85 608.35 973.85 609.07 971.75 609.04C970.24 609.02 968.77 609.45 968.5 610C968.23 610.55 966.65 611 965 611C963.35 611 960.99 610.58 959.75 610.07C958.07 609.38 956.67 609.63 954.25 611.07C952.46 612.13 949.88 613 948.5 613C947.13 613 944.76 612.5 943.25 611.88C941.74 611.27 941.06 610.59 941.75 610.38C942.44 610.17 943 609.33 943 608.5C943 607.57 942.06 607 940.5 607C939.13 607 937.1 607.9 936 609C934.9 610.1 932.88 611.23 931.5 611.5C930.13 611.77 929 611.55 929 611C929 610.45 928.55 610 928 610C927.45 610 927 610.67 927 611.5C927 612.33 926.66 613.06 926.25 613.13C925.84 613.2 924.38 613.4 923 613.57C921.63 613.74 919.26 614.13 917.75 614.44C916.21 614.75 915 614.56 915 614C915 613.45 913.42 612.1 911.5 611C909.15 609.66 907.99 608.26 907.98 606.75C907.97 605.51 907.08 603.38 906 602C904.92 600.63 904.03 598.71 904.02 597.75C904.01 596.79 903.55 596 903 596C902.45 596 902 595.1 902 594C902 592.9 902.79 590.54 903.75 588.75C904.71 586.96 905.95 585.17 906.5 584.77C907.07 584.35 906.74 584.02 905.75 584.02C904.79 584.01 902.17 585.01 899.94 586.25C896.43 588.2 895.76 588.3 894.94 587C894.1 585.67 893.9 585.67 893.09 587C892.58 587.83 892.36 589.06 892.59 589.75C892.81 590.44 893.67 591 894.5 591C895.33 591 896.02 591.56 896.04 592.25C896.07 592.94 895.39 594.06 894.54 594.75C893.7 595.44 892.1 595.77 891 595.5C889.9 595.23 888.1 595.45 887 596C885.35 596.83 884.39 596.39 881.5 593.5C879.58 591.58 878.01 589.66 878.03 589.25C878.04 588.84 876.92 587.94 875.53 587.25C874.14 586.56 872.55 586 872 586C871.45 586 870.55 587.13 870 588.5C869.4 590 868.2 591 867 591C865.9 591 864.5 590.21 863.89 589.25C863.24 588.22 861.8 587.6 860.39 587.75C858.39 587.96 858 587.56 858.02 585.25C858.03 583.74 857.46 581.93 856.77 581.23C856.06 580.53 853.18 579.97 850.25 579.98C845.7 580 845.08 580.23 845.57 581.75C845.89 582.71 846.18 583.73 846.22 584C846.26 584.27 845.89 586.44 845.4 588.81C844.69 592.23 843.98 593.25 842 593.72C840.63 594.04 838.6 595.28 837.5 596.47C836.4 597.66 834.38 598.92 833 599.27C831.63 599.62 829.6 600.62 828.5 601.48C827.08 602.6 826.93 603.01 828 602.91C828.83 602.83 830.06 602.82 830.75 602.88C831.44 602.95 832.65 604.69 833.43 606.75C834.22 608.81 834.66 611.4 834.41 612.5C834.11 613.85 832.17 615.15 823.04 618.5L821.55 616.5C820.73 615.4 820.05 613.94 820.03 613.25C820.01 612.56 819.33 611.77 818.5 611.5C817.51 611.17 817.01 609.72 817.04 607.25C817.06 604.89 817.71 603.05 818.79 602.28C820.3 601.2 820.18 601.06 817.75 601.03C816.24 601.01 814.77 600.55 814.5 600C814.23 599.45 813.1 599 812 599C810.9 599 809.85 598.44 809.67 597.75C809.49 597.06 809.27 594.59 809.17 592.25C809.08 589.91 809.45 588 810 588C810.55 588 811.22 586.54 811.49 584.75C811.76 582.96 812.77 580.83 813.74 580C814.71 579.17 817.42 577.04 819.75 575.25C822.09 573.46 824.45 572 825 572C825.55 572 826.11 571.48 826.25 570.86C826.39 570.19 828.82 569.63 832 569.52C835.02 569.42 838.29 569.04 839.25 568.67C840.21 568.3 841 567.33 841 566.5C841 565.67 841.45 565 842 565C842.55 565 842.99 564.21 842.97 563.25C842.96 562.29 842.17 560.7 841.22 559.72C840.28 558.74 839.05 557.95 838.5 557.98C837.95 558 836.83 557.11 836 556C835.17 554.89 833.71 553.98 832.75 553.99C831.79 554 830.55 553.1 830 552C829.45 550.9 829.23 549.33 829.5 548.5C829.77 547.67 829.44 546.35 828.75 545.55C827.67 544.31 827.19 544.41 825.27 546.3C824.05 547.51 823.03 549.06 823.02 549.75C823.01 550.44 821.99 551.21 820.75 551.46C819.45 551.72 817.74 551.19 816.72 550.21C815.74 549.27 814.95 547.94 814.97 547.25C814.99 546.56 815.34 545.98 815.75 545.96C816.16 545.94 817.85 544.86 819.5 543.55C822.33 541.31 822.4 541.09 820.75 539.59C819.79 538.71 818.55 538 818 538C817.45 538 816.82 537.21 816.61 536.25C816.39 535.29 816.5 533.96 816.86 533.29C817.21 532.63 819.98 531.87 823 531.61C828.01 531.17 828.61 530.86 829.75 528.06C830.44 526.38 831.45 525 832 525C832.55 525 833 524.1 833 523C833 521.9 833.45 520.77 834 520.5C834.55 520.23 835 518.88 835 517.5C835 515.77 834.46 515.01 833.25 515.04C832.29 515.07 830.99 514.51 830.36 513.79C829.73 513.08 829.36 510.93 829.55 509C829.82 506.12 829.45 505.28 827.44 504.25C825.67 503.34 825 502.17 825 500C825 497.39 824.71 497.07 822.75 497.56C821.23 497.95 819.85 497.45 818.5 496.03C817.4 494.88 815.83 493.96 815 493.98C814.17 494.01 812.93 493.46 812.23 492.77C811.54 492.07 810.97 490.49 810.98 489.25C810.99 488.01 811.45 486.77 812 486.5C812.55 486.23 812.98 484.99 812.96 483.75C812.94 482.51 812.29 481.05 811.52 480.5C810.68 479.9 810.3 478.4 810.56 476.75C810.87 474.81 811.59 474 813 474C814.33 474 814.83 473.5 814.5 472.5C814.23 471.68 813.33 471 812.5 471C811.33 471 811.11 470.11 811.5 467C811.91 463.71 811.65 462.82 810 462C808.9 461.45 806.88 461 805.5 461C804.02 461 802.38 460.08 801.49 458.75C800.66 457.51 799.97 455.15 799.96 453.5C799.95 451.78 800.8 449.65 801.97 448.5C803.24 447.24 804.56 446.78 805.5 447.25C806.32 447.66 807 448.68 807 449.5C807 450.33 807.74 450.89 808.67 450.75C809.59 450.61 811.1 449.15 812.03 447.5C813.57 444.77 814.15 444.51 818.61 444.64C821.3 444.72 822.6 444.56 821.5 444.3C820.4 444.03 819.05 443.39 818.5 442.89C817.95 442.38 816.83 441.98 816 442C815.17 442.02 813.49 441.13 812.25 440.02C811.01 438.91 809.33 438 808.5 438C807.67 438 806.77 438.45 806.5 439C806.23 439.55 805.44 440.01 804.75 440.03C804.06 440.04 802.94 438.92 802.25 437.53C801.56 436.14 800.21 434.99 799.25 434.97C798.29 434.96 796.7 434.17 795.72 433.22C794.74 432.28 793.95 430.94 793.97 430.25C793.99 429.56 793.1 428.77 792 428.5C790.9 428.23 790 427.32 790 426.5C790 425.68 790.9 423.43 792 421.5C793.1 419.57 794 416.65 794 415C794 413.22 793.39 411.8 792.5 411.5C791.67 411.23 791 410.1 791 409C791 407.8 792 406.6 793.5 406C794.88 405.45 796 404.55 796 404C796 403.45 797.69 403.1 799.75 403.22C802.26 403.37 804.57 402.71 806.75 401.22C808.54 400 810.67 399 811.5 399C812.33 399 813 398.55 813 398C813 397.45 812.55 397 812 397C811.45 397 811 395.99 811 394.75C810.99 393.48 812.08 391.74 816 389L809.5 383.04L813.5 379.56C816.26 377.15 818.51 376.06 820.75 376.04C822.54 376.02 824 375.55 824 375C824 374.45 822.65 373.21 821.01 372.25C818.84 370.98 818.01 369.74 818.01 367.75C818 365.24 818.33 365 821.75 364.99C823.81 364.98 827.17 364.65 829.22 364.24C831.68 363.75 833.14 362.83 833.53 361.5C833.85 360.4 834.31 357.81 834.56 355.75C834.93 352.57 834.62 351.77 832.5 350.5C830.82 349.49 829.99 348.1 829.97 346.25C829.96 344.74 830.29 343.84 830.72 344.26C831.15 344.67 832.51 344.33 833.75 343.51C835.12 342.59 836.19 342.39 836.5 343C836.77 343.55 837.9 344 839 344C840.1 344 841 343.55 841 343C841 342.45 840.21 342.11 839.25 342.25C838.29 342.39 837.54 342.05 837.58 341.5C837.63 340.95 838.08 339.03 838.58 337.23C839.28 334.76 840.05 333.96 841.75 333.98C842.99 333.99 846.03 333.44 848.52 332.75C852.08 331.76 852.93 331.13 852.52 329.75C852.11 328.38 852.6 328 854.75 328.02C856.59 328.03 858.66 326.86 861 324.5C862.92 322.56 863.94 320.97 863.25 320.98C862.56 320.99 861.77 319.88 861.5 318.5C861.23 317.13 861.56 315.3 862.25 314.46C862.94 313.61 864.29 312.93 865.25 312.96C866.42 312.99 866.86 312.42 866.57 311.25C866.34 310.29 865.89 307.59 865.57 305.25C865.1 301.76 865.31 300.9 866.75 300.46C867.71 300.17 869.01 299.16 869.63 298.21C870.25 297.27 870.88 293.57 871.04 290C871.2 286.43 871 281.93 870.61 280C870.22 278.07 870.28 274.7 870.75 272.5C871.38 269.53 872.1 268.48 873.55 268.43C874.62 268.4 876.17 268.72 877 269.15C877.89 269.61 879.32 269.34 880.5 268.48C881.84 267.52 882.14 266.78 881.4 266.27C880.79 265.85 879.97 264.15 879.58 262.5C879.18 260.85 878.62 258.15 878.33 256.5C877.9 254.06 878.24 253.28 880.15 252.32C881.44 251.67 883.74 251.1 885.25 251.07ZM656.05 252C657.12 252 658.67 252.22 659.5 252.5C660.42 252.81 660.81 253.77 660.5 255C660.21 256.17 659.17 257 658 257C656.9 257 655.33 256.32 654.5 255.5C653.67 254.68 653.25 253.55 653.55 253C653.85 252.45 654.98 252 656.05 252ZM1484.25 253.09C1485.21 253.04 1486.9 253.9 1488 255C1489.86 256.86 1490.29 256.9 1494.25 255.58C1496.59 254.8 1499.1 254.46 1499.83 254.83C1500.55 255.2 1501 256.4 1500.83 257.49C1500.65 258.6 1498.93 260.25 1497 261.2C1495.08 262.14 1492.26 262.93 1490.75 262.95C1489.24 262.98 1487.66 262.49 1487.25 261.87C1486.83 261.24 1485.18 260.97 1483.5 261.25C1481.85 261.53 1479.71 261.36 1478.75 260.88C1477.79 260.4 1477 259.21 1477 258.25C1477 257.29 1478.24 255.75 1479.75 254.84C1481.26 253.93 1483.29 253.14 1484.25 253.09ZM1594.61 255C1595.38 255 1596 255.68 1596 256.5C1596 257.32 1595.55 258.23 1595 258.5C1594.45 258.77 1593.33 258.77 1592.5 258.5C1591.35 258.12 1591.26 257.65 1592.11 256.5C1592.72 255.68 1593.85 255 1594.61 255ZM866.75 266.14C867.44 266.06 868.45 266.9 869 268C869.67 269.33 869.67 270.83 869 272.5C868.13 274.68 867.46 274.97 863.75 274.75C860.04 274.53 859.46 274.18 859.22 272C859.06 270.63 859.43 268.96 860.03 268.31C860.63 267.66 862.11 266.93 863.31 266.7C864.52 266.46 866.06 266.21 866.75 266.14ZM1159.79 265.97C1162.22 265.95 1164.45 266.73 1166.24 268.22C1167.75 269.47 1168.97 270.95 1168.96 271.5C1168.95 272.05 1167.94 273.65 1166.72 275.06C1164.89 277.17 1163.71 277.58 1160 277.43C1157.53 277.33 1154.71 277.19 1153.75 277.12C1152.47 277.03 1151.99 276.11 1151.96 273.69C1151.93 271.66 1152.72 269.53 1153.99 268.19C1155.39 266.72 1157.3 265.99 1159.79 265.97ZM1118.24 270C1118.66 270 1118.97 270.79 1118.93 271.75C1118.89 272.71 1118.1 274.81 1117.18 276.4C1116.25 278 1114.94 279.46 1114.25 279.65C1113.56 279.84 1113 279.32 1113 278.5C1113 277.68 1114.01 275.43 1115.24 273.5C1116.47 271.57 1117.82 270 1118.24 270ZM1310 283.42C1311.38 283.49 1313.06 283.87 1313.75 284.27C1314.66 284.8 1314.73 285.61 1313.99 287.25C1313.44 288.49 1310.96 290.51 1308.49 291.75C1304.5 293.75 1303.83 293.83 1302.5 292.5C1301.67 291.68 1301 290.77 1301 290.5C1301 290.23 1302.46 288.49 1304.25 286.66C1306.35 284.49 1308.38 283.35 1310 283.42ZM817.3 284.98C817.96 284.97 819.85 286.33 821.5 288.01C823.98 290.54 824.3 291.37 823.34 292.79C822.39 294.2 822.64 294.85 824.79 296.5C826.22 297.6 828.54 299.47 832.5 302.83L830.4 305.17C829.24 306.45 828.01 308.29 827.65 309.25C827.23 310.37 825.21 311.36 822 312C819.25 312.55 816.33 313 815.5 313C814.67 313 813.33 311.43 812.5 309.5C811.67 307.57 810.21 305.61 809.25 305.14C808.29 304.66 806.94 304.43 806.25 304.64C805.56 304.84 805 304.55 805 304C805 303.45 803.99 302.89 802.75 302.75C801.1 302.57 800.43 301.77 800.25 299.75C800.11 298.24 800.45 297 801 297C801.55 297 802 296.1 802 295C802 293.9 802.56 292.82 803.25 292.61C803.94 292.39 807.1 291.61 810.28 290.86C814.18 289.94 815.89 289.09 815.53 288.25C815.24 287.56 815.25 286.55 815.55 286C815.85 285.45 816.64 284.99 817.3 284.98ZM1102.25 291.08C1103.21 291.04 1104.34 291.7 1104.75 292.55C1105.2 293.48 1104.9 294.66 1104 295.52C1103.17 296.3 1101.49 296.73 1100.25 296.47C1098.97 296.2 1097.91 295.17 1097.8 294.08C1097.69 293.03 1098.25 291.94 1099.05 291.66C1099.85 291.38 1101.29 291.12 1102.25 291.08ZM1147.95 299.42C1149.99 299.47 1151.23 300.2 1151.95 301.75C1152.72 303.4 1152.66 304.42 1151.75 305.55C1151.06 306.4 1149.6 307.98 1148.5 309.07C1147.4 310.15 1145.6 311.1 1144.5 311.18C1143.4 311.25 1141.71 311.25 1140.75 311.16C1139.75 311.07 1138.79 311.86 1138.5 313C1138.22 314.1 1137.33 315 1136.5 315C1135.29 315 1135.05 313.69 1135.5 301.5L1139.94 300.94C1142.39 300.62 1144.52 300.14 1144.69 299.85C1144.86 299.57 1146.33 299.37 1147.95 299.42ZM777 309C779.36 309 780.22 309.59 781.01 311.75C781.57 313.26 781.79 314.73 781.49 315C781.19 315.27 779.39 314.71 777.48 313.75C775.56 312.79 774 311.32 774 310.5C774 309.5 775 309 777 309ZM1193.75 310.58C1196.09 310.81 1198.67 311.68 1199.5 312.5C1200.33 313.32 1200.99 315.69 1200.97 317.75C1200.96 319.81 1200.3 322.18 1199.51 323C1198.72 323.82 1196.48 326.19 1194.54 328.25C1191.76 331.2 1190.25 332 1187.5 332C1185.58 332 1184 332.45 1184 333C1184 333.55 1182.42 334 1180.5 334C1178.23 334 1175.94 333.12 1174 331.5C1171.51 329.43 1171.01 328.27 1171.03 324.75C1171.05 322.41 1171.61 319.73 1172.28 318.79C1172.95 317.85 1174.06 317.06 1174.75 317.04C1175.44 317.02 1176.11 316.5 1176.25 315.88C1176.39 315.26 1179.42 313.72 1183 312.46C1187.3 310.94 1190.94 310.3 1193.75 310.58ZM847 313C848.1 313 849.24 313.79 849.52 314.75C849.81 315.71 849.7 316.85 849.27 317.27C848.85 317.7 847.71 317.81 846.75 317.52C845.79 317.24 845 316.1 845 315C845 313.67 845.67 313 847 313ZM1164.75 317.01C1165.44 317 1166.26 317.56 1166.59 318.25C1166.91 318.94 1166.68 320.51 1166.09 321.75C1165.49 322.99 1162.97 324.9 1160.5 326C1158.03 327.1 1154.88 328 1153.5 328C1151.79 328 1151 327.45 1150.99 326.25C1150.99 325.29 1151.7 323.49 1152.58 322.25C1153.45 321.01 1154.92 320.01 1155.83 320.03C1156.75 320.05 1158.85 319.38 1160.5 318.54C1162.15 317.7 1164.06 317.01 1164.75 317.01ZM821.35 324.55C823.08 324.93 824.73 325.64 825 326.11C825.27 326.58 826.85 327.67 828.5 328.52C830.15 329.37 832.06 330.05 832.75 330.03C833.44 330.01 833.98 330.79 833.96 331.75C833.94 332.71 832.59 334.74 830.96 336.25C829.2 337.88 828 340.01 828 341.5C828 343.75 827.6 344 824 344C820.77 344 819.83 343.57 819.14 341.75C818.67 340.51 817.08 338.15 815.61 336.5C814.05 334.75 812.95 332.36 812.97 330.75C812.98 329.24 813.45 328.23 814 328.5C814.55 328.77 815 328.32 815 327.5C815 326.68 815.67 326 816.5 326C817.33 326 818.04 325.51 818.1 324.92C818.16 324.23 819.34 324.1 821.35 324.55ZM1292.25 325.15C1293.21 325.07 1294.34 325.68 1294.75 326.51C1295.16 327.34 1295.28 328.21 1295 328.45C1294.72 328.68 1291.4 329.24 1287.62 329.69C1281.06 330.46 1280.75 330.41 1281.13 328.5C1281.43 326.97 1282.58 326.36 1286.01 325.9C1288.48 325.57 1291.29 325.23 1292.25 325.15ZM761.89 334.66C763.33 335 764.84 335.44 765.25 335.64C765.66 335.84 766 337.13 766 338.5C766 340.17 765.33 341.17 764 341.5C762.9 341.77 761.77 341.55 761.5 341C761.23 340.45 760.1 340 759 340C757.81 340 756.92 339.27 756.8 338.2C756.69 337.21 757.2 335.87 757.94 335.22C758.69 334.57 760.43 334.32 761.89 334.66ZM1231.75 335.12C1232.44 335.05 1233.22 335.45 1233.5 336C1233.78 336.55 1234.9 337 1236 337C1237.4 337 1238.01 337.68 1238.03 339.25C1238.05 340.49 1237.26 342.25 1236.28 343.17C1235.3 344.09 1233.38 345.13 1232 345.49C1230.17 345.96 1229.03 345.58 1227.75 344.06C1226.79 342.93 1226.33 341.44 1226.73 340.75C1227.12 340.06 1227.35 338.71 1227.23 337.75C1227.1 336.77 1227.77 335.83 1228.75 335.62C1229.71 335.4 1231.06 335.18 1231.75 335.12ZM657.5 337C659.72 337 661.18 337.55 661.5 338.5C661.85 339.54 663.44 340.01 666.75 340.04C670.06 340.07 671.87 340.6 672.72 341.79C673.39 342.73 673.95 344.06 673.97 344.75C673.99 345.44 672.65 346.23 671 346.5C669.35 346.77 666.99 346.46 665.75 345.79C664.51 345.13 661.92 344.45 660 344.29C658.08 344.12 655.92 343.43 655.21 342.74C654.49 342.06 653.93 340.49 653.96 339.25C653.99 337.35 654.55 337 657.5 337ZM1383 343.83C1384.38 344.13 1386.29 345.08 1387.26 345.94C1388.23 346.8 1389.03 347.73 1389.05 348C1389.06 348.27 1387.82 350.03 1386.29 351.89C1384.32 354.28 1382.98 355.09 1381.75 354.64C1380.79 354.29 1380 353.32 1380 352.5C1380 351.61 1379.09 351 1377.75 351.01C1376.51 351.02 1374.03 350.68 1372.23 350.26C1370.12 349.77 1368.95 348.89 1368.93 347.79C1368.91 346.63 1370.14 345.76 1372.7 345.11C1374.79 344.58 1377.4 343.96 1378.5 343.72C1379.6 343.48 1381.63 343.53 1383 343.83ZM629.58 345.75C629.81 346.44 631.24 347 632.75 346.99C634.26 346.99 637.64 347.33 640.27 347.74C644.32 348.39 645.03 348.83 645.02 350.75C645 352.48 644.42 353 642.5 353C641.13 353 639.77 353.45 639.5 354C639.17 354.66 638.58 354.66 637.75 353.98C637.06 353.42 633.8 352.91 630.5 352.84C627.2 352.78 623.76 352.22 622.85 351.61C621.55 350.74 621.44 350.13 622.33 348.75C622.95 347.77 624.68 347 626.23 347C627.75 347 629.04 346.44 629.08 345.75C629.14 344.75 629.24 344.75 629.58 345.75ZM1295.74 346.62C1301.98 347.11 1303.85 347.65 1305.28 349.37C1306.31 350.6 1307.05 353.08 1307.03 355.25C1307 358.99 1306.99 359 1302.25 359.45C1299.64 359.69 1295.81 360.14 1293.75 360.45C1291.55 360.77 1290 360.59 1290 360C1290 359.45 1288.65 359 1287 359C1285.35 359 1283.72 358.44 1283.37 357.75C1283.03 357.06 1283.03 355.04 1283.37 353.25C1283.78 351.15 1284.71 349.82 1286 349.5C1287.1 349.23 1288 348.33 1287.99 347.51C1287.98 346.26 1289.26 346.12 1295.74 346.62ZM1220.5 349.29C1221.6 349.4 1222.5 350.15 1222.5 350.94C1222.5 351.75 1220.98 352.74 1219 353.22C1217.08 353.68 1215.28 353.82 1215 353.53C1214.72 353.23 1215.4 352.11 1216.5 351.03C1217.6 349.95 1219.4 349.17 1220.5 349.29ZM782.75 361.08C783.44 361.04 785.24 361.51 786.75 362.12C788.26 362.74 790.63 363.7 792 364.24C793.38 364.79 795.29 365.63 796.25 366.12C797.21 366.6 798.56 366.99 799.25 366.98C799.94 366.97 801.4 367.59 802.5 368.36C804.28 369.6 804.33 369.92 803 371.24C802.17 372.06 799.7 373.2 797.5 373.78C795.04 374.43 792.34 374.5 790.5 373.97C788.85 373.49 785.58 371.16 783.23 368.8C780.89 366.43 778.88 363.98 778.78 363.33C778.68 362.69 779.25 361.94 780.05 361.66C780.85 361.38 782.06 361.12 782.75 361.08ZM1256.75 364.08C1256.89 364.04 1259.25 365.13 1262 366.5C1264.75 367.88 1267.45 368.77 1268 368.5C1268.55 368.23 1269.79 368.79 1270.75 369.76C1271.71 370.73 1273.14 372.87 1273.93 374.51C1274.72 376.16 1275.35 378.18 1275.33 379C1275.32 379.82 1275.24 381.29 1275.15 382.25C1275.07 383.21 1274.33 384 1273.5 384C1272.67 384 1272 384.89 1272 386C1272 387.47 1271 388.26 1268.25 388.99C1266.19 389.54 1263.94 389.99 1263.25 389.99C1262.56 390 1260.88 391.35 1259.5 393C1258.13 394.65 1256.33 396 1255.5 396C1254.67 396 1253.1 396.45 1252 397C1250.9 397.55 1245.39 398.07 1239.75 398.16C1232.84 398.26 1228.44 397.85 1226.25 396.91C1224.46 396.13 1223 395.16 1223 394.75C1223 394.34 1222.21 394.01 1221.25 394.02C1219.95 394.03 1219.31 392.87 1218.75 389.52C1218.18 386.07 1218.36 384.64 1219.5 383.5C1220.33 382.68 1221.01 380.76 1221.02 379.25C1221.02 377.74 1221.36 375.89 1221.77 375.15C1222.3 374.18 1223.81 373.97 1227.25 374.4C1230.96 374.87 1232.11 374.67 1232.5 373.5C1232.78 372.68 1234.13 372 1235.5 372C1236.88 372 1238 371.55 1238 371C1238 370.45 1238.9 370 1240 370C1241.1 370 1242.2 370.56 1242.44 371.25C1242.72 372.05 1243.71 371.5 1245.19 369.72C1246.61 368.01 1248.08 367.17 1249 367.54C1249.83 367.87 1251.17 367.51 1252 366.74C1252.83 365.97 1254.17 365.08 1255 364.75C1255.83 364.42 1256.61 364.12 1256.75 364.08ZM1392.46 372.21C1393.58 372.37 1394.5 373.18 1394.5 374C1394.5 374.91 1393.42 375.6 1391.75 375.75C1390.06 375.9 1388.94 375.49 1388.83 374.67C1388.74 373.93 1389.06 373.01 1389.54 372.62C1390.02 372.23 1391.33 372.05 1392.46 372.21ZM1286.11 386C1288.68 386 1290.17 386.51 1290.5 387.5C1290.78 388.32 1290.55 389.68 1290 390.5C1289.16 391.76 1289.93 392.09 1294.75 392.58C1297.91 392.9 1301.29 393.35 1302.25 393.58C1303.21 393.81 1304.9 395.57 1306 397.5C1307.1 399.43 1307.78 401.45 1307.5 402C1307.22 402.55 1307.9 403 1309 403C1310.1 403 1311 403.45 1311 404C1311 404.55 1312.91 405.01 1315.25 405.02C1317.59 405.02 1320.08 405.36 1320.8 405.77C1321.54 406.18 1321.97 407.8 1321.8 409.5C1321.54 412.06 1321.13 412.45 1319 412.17C1317.63 411.99 1315.15 411.84 1313.5 411.84C1311.85 411.83 1308.92 412.16 1307 412.55C1305.08 412.95 1303.28 413.61 1303 414.01C1302.72 414.41 1301.04 414.58 1299.25 414.37C1297.46 414.17 1296 413.44 1296 412.75C1296.01 411.97 1293.27 411.06 1288.75 410.32C1284.76 409.67 1281.39 408.66 1281.25 408.07C1281.11 407.48 1280.21 406.98 1279.25 406.96C1278.29 406.94 1276.49 405.81 1275.25 404.46C1273.81 402.89 1273.24 401.37 1273.66 400.25C1274.02 399.29 1275.04 397.79 1275.91 396.92C1276.78 396.05 1279.3 394.35 1281.5 393.14C1283.7 391.93 1284.49 391.18 1283.25 391.47C1281.67 391.84 1280.85 391.48 1280.5 390.25C1280.22 389.29 1280.49 387.94 1281.11 387.25C1281.72 386.56 1283.97 386 1286.11 386ZM798.98 392.36C799.8 392.44 800.59 393.29 800.73 394.25C800.88 395.21 800.1 396.45 799 397C797.58 397.71 796.55 397.63 795.46 396.75C794.61 396.06 793.82 394.97 793.71 394.32C793.61 393.68 794.41 392.94 795.51 392.68C796.6 392.42 798.17 392.28 798.98 392.36ZM640.49 393.41C642.14 393.73 645.08 394.24 647 394.55C649.1 394.88 651.05 395.98 651.87 397.3C652.63 398.51 652.96 400.06 652.62 400.75C652.28 401.44 650.42 402.68 648.5 403.5C645.65 404.72 644.63 404.77 643 403.75C641.89 403.06 640.99 402.16 641 401.75C641 401.34 640.1 401.23 639 401.5C637.61 401.85 636.66 401.31 635.9 399.75C635.06 398.04 635.12 396.94 636.14 395.17C637.22 393.28 638.04 392.94 640.49 393.41ZM1390.12 395.14C1404.49 395.05 1406.68 395.25 1408 396.77C1408.83 397.72 1410.06 399.51 1410.75 400.75C1411.8 402.65 1411.73 403.29 1410.25 404.82C1409.29 405.83 1407.94 406.5 1407.25 406.32C1406.56 406.15 1404.54 406.64 1402.75 407.42C1400.96 408.2 1398.49 409.1 1397.25 409.42C1396.01 409.74 1395 410.45 1395 411C1395 411.55 1393.39 411.89 1391.42 411.75C1389.45 411.61 1387.65 411.84 1387.42 412.25C1387.19 412.66 1385.42 413 1383.5 413C1381.58 413 1379.33 412.32 1378.5 411.5C1377.17 410.17 1376.94 410.17 1376.5 411.5C1376.22 412.32 1374.88 413 1373.5 413C1371.75 413 1370.4 412.02 1369.01 409.75C1367.91 407.96 1367.46 406.39 1368.01 406.25C1368.55 406.11 1369 404.43 1369 402.5C1369 399.75 1369.54 398.73 1371.53 397.75C1372.92 397.06 1373.99 396.22 1373.9 395.88C1373.82 395.53 1381.12 395.2 1390.12 395.14ZM697.75 409.04C698.99 409.02 701.14 409.56 702.53 410.25C703.92 410.94 705.04 412.18 705.02 413C705 413.82 703.75 415.07 702.24 415.76C700.73 416.45 698.6 417.03 697.5 417.04C696.35 417.05 694.97 415.99 694.25 414.53C693.25 412.51 693.25 411.71 694.25 410.54C694.94 409.73 696.51 409.06 697.75 409.04ZM763.92 416.01C764.79 416.02 766.51 416.25 767.75 416.51C769.42 416.87 770 417.71 770.01 419.75C770.02 421.27 769.17 423.17 768.12 424C766.86 424.99 766.43 426.16 766.86 427.44C767.29 428.75 767.1 429.24 766.25 428.94C765.56 428.7 765.09 428.05 765.19 427.5C765.3 426.95 764.06 426.25 762.44 425.94C760.82 425.64 758.15 425.74 756.5 426.17C754.85 426.6 752.38 426.68 751 426.35C749.63 426.01 747.48 424.78 746.22 423.62C744.97 422.45 743.96 420.71 743.97 419.75C743.99 418.79 744.79 417.81 745.75 417.59C746.71 417.36 750.61 417.15 754.4 417.12C758.2 417.09 761.54 416.83 761.82 416.53C762.1 416.24 763.05 416.01 763.92 416.01ZM1254.7 430C1257.78 430 1257.96 430.18 1257.4 432.75C1257.07 434.26 1256.06 436.01 1255.15 436.64C1253.87 437.52 1253 437.41 1251.28 436.14C1250.06 435.24 1248.96 434.03 1248.83 433.45C1248.7 432.87 1249.23 431.86 1250 431.2C1250.77 430.54 1252.88 430 1254.7 430ZM776.16 440.3C779.27 440.41 782.2 440.86 782.66 441.3C783.12 441.74 782.94 442.97 782.25 444.05C781.14 445.78 781.29 446.06 783.5 446.5C784.88 446.77 786.4 448.01 786.88 449.25C787.37 450.49 787.71 451.61 787.63 451.75C787.56 451.89 785.7 452.43 783.5 452.94C780.57 453.63 778.7 453.52 776.5 452.53C774.85 451.78 771.7 450.84 769.5 450.42C767.3 450 765.05 449.76 764.5 449.87C763.95 449.99 763.17 449.5 762.77 448.79C762.36 448.08 762.02 446.94 762.02 446.25C762.01 445.56 762.91 444.21 764.02 443.25C765.13 442.29 767.05 441.18 768.27 440.8C769.5 440.41 773.05 440.19 776.16 440.3ZM1297.66 450.13C1302.62 450.01 1303.08 450.2 1304.05 452.75C1305.06 455.4 1305.29 455.47 1310.05 454.75C1313.32 454.25 1315.08 454.36 1315.25 455.07C1315.39 455.65 1318.32 456.44 1321.76 456.82C1325.2 457.19 1328.02 457.84 1328.01 458.25C1328 458.66 1328.79 458.99 1329.75 458.98C1330.88 458.96 1331.82 460.11 1332.42 462.23C1332.92 464.03 1333.43 465.95 1333.55 466.5C1333.67 467.05 1333.87 467.73 1334 468C1334.12 468.27 1334.4 469.74 1334.61 471.25C1334.91 473.35 1334.53 474.12 1333 474.5C1331.9 474.77 1331 475.68 1331 476.5C1331 477.38 1330.07 478.01 1328.75 478.02C1327.51 478.04 1324.47 479.05 1322 480.27C1319.53 481.5 1317.28 482.77 1317 483.1C1316.72 483.43 1315.49 484.22 1314.25 484.85C1313.01 485.48 1309.97 486 1307.5 486C1305.03 486 1303 485.55 1303 485C1303 484.45 1302.33 484 1301.5 484C1300.67 484 1300 484.45 1300 485C1300 485.55 1298.65 486 1297 486C1295.35 486 1294 485.55 1294 485C1294 484.45 1293.44 484.19 1292.75 484.43C1292.06 484.66 1290.15 484.2 1288.5 483.4C1286.85 482.59 1284.94 481.95 1284.25 481.97C1283.56 481.99 1283 481.32 1283 480.5C1283 479.68 1282.55 479 1282 479C1281.45 479 1281 477.88 1281 476.5C1281 474.31 1280.57 474 1277.5 474C1275.06 474 1274 473.55 1274 472.5C1274 471.68 1273.55 471 1273 471C1272.45 471 1272 470.32 1272 469.5C1272 468.68 1271.44 467.85 1270.75 467.67C1269.93 467.45 1270.52 465.99 1272.46 463.42C1274.09 461.26 1275.97 458.94 1276.64 458.25C1277.31 457.56 1278.34 457 1278.93 457C1279.52 457 1280.47 456.17 1281.05 455.15C1281.66 454.09 1283.35 453.24 1285.05 453.15C1286.67 453.07 1288.97 452.38 1290.16 451.63C1291.35 450.88 1294.72 450.2 1297.66 450.13ZM1208.89 461.49C1210.33 461.88 1213.97 462.53 1217 462.94C1220.03 463.35 1223.06 463.99 1223.75 464.35C1224.44 464.71 1225 465.45 1225 466C1225 466.55 1223.76 467 1222.25 467C1220.74 467 1216.45 466.22 1212.73 465.25C1208.32 464.11 1206.01 463.03 1206.12 462.14C1206.23 461.18 1207.04 460.99 1208.89 461.49ZM1274 478C1275.33 478 1276 478.67 1276 480C1276 481.33 1275.33 482 1274 482C1272.67 482 1272 481.33 1272 480C1272 478.67 1272.67 478 1274 478ZM727.17 486C728.17 486 729 486.68 729 487.5C729 488.33 728.11 489 727 489C725.9 489 724.79 488.66 724.52 488.25C724.26 487.84 724.33 487.16 724.69 486.75C725.04 486.34 726.16 486 727.17 486ZM1173.5 489.67C1175.7 489.98 1177.84 490.4 1178.25 490.62C1178.66 490.83 1179 492.13 1179 493.5C1179 494.88 1178.33 496.23 1177.5 496.5C1176.67 496.77 1174.88 497 1173.5 497C1172.13 497 1170.1 496.55 1169 496C1167.9 495.45 1166.91 493.91 1166.8 492.58C1166.69 491.23 1167.24 489.93 1168.05 489.64C1168.85 489.35 1171.3 489.36 1173.5 489.67ZM1296 494.64C1297.38 494.92 1298.8 495.45 1299.17 495.82C1299.53 496.19 1299.98 497.33 1300.17 498.33C1300.42 499.73 1299.43 500.52 1296 501.65C1293.53 502.47 1291.05 502.95 1290.5 502.73C1289.95 502.51 1288.94 500.9 1288.25 499.16C1287.03 496.07 1287.07 495.98 1290.25 495.07C1292.04 494.56 1294.63 494.37 1296 494.64ZM618.75 497.02C619.44 497.01 620.56 497.9 621.25 499C621.94 500.11 623.06 501.01 623.75 501C624.44 501 624.99 501.79 624.98 502.75C624.98 503.71 624.64 504.96 624.23 505.52C623.83 506.08 622.38 507.06 621 507.7C619.47 508.42 618.11 508.51 617.5 507.95C616.89 507.38 615.14 507.46 613 508.15C611.08 508.76 608.83 509.61 608 510.03C607.17 510.45 604.82 510.28 602.76 509.65C599.71 508.71 599.12 508.13 599.59 506.5C599.9 505.4 601.25 503.49 602.58 502.25C604.06 500.87 605.77 500.19 607 500.5C608.1 500.77 609 500.55 609 500C609 499.45 610.24 498.99 611.75 498.98C613.26 498.98 615.17 498.53 616 498C616.83 497.47 618.06 497.02 618.75 497.02ZM740 509C741.33 509 742 509.67 742 511C742 512.33 741.33 513 740 513C738.67 513 738 512.33 738 511C738 509.67 738.67 509 740 509ZM799.16 512.08C799.53 512.04 799.74 512.79 799.65 513.75C799.55 514.71 798.69 515.61 797.73 515.75C796.78 515.89 795.91 515.36 795.8 514.58C795.69 513.8 796.25 512.94 797.05 512.66C797.85 512.38 798.8 512.12 799.16 512.08ZM816 514.79C817.38 515.06 819.08 515.78 819.79 516.39C820.51 517 821.05 519.3 821.01 521.5C820.96 523.96 820.18 526.37 818.97 527.75C817.89 528.99 815.99 529.99 814.75 529.98C813.51 529.97 811.6 530.8 810.5 531.82C809.4 532.85 807.04 533.98 805.25 534.34C802.75 534.85 801.54 534.54 800 533C798.9 531.9 797.5 529.99 796.9 528.75C796.29 527.51 796.07 525.49 796.4 524.25C796.73 523.01 798.69 521.01 800.75 519.8C802.81 518.59 804.73 517.34 805 517.01C805.27 516.68 807.3 515.94 809.5 515.36C811.7 514.78 814.63 514.52 816 514.79ZM761.58 528C762.36 528 763 528.9 763 530C763 531.33 762.33 532 761 532C759.9 532 759 531.77 759 531.5C759 531.23 759.26 530.33 759.58 529.5C759.91 528.67 760.81 528 761.58 528ZM1201.8 534.6C1203.29 535.92 1205.06 537.01 1205.75 537C1206.44 537 1207 537.67 1207 538.5C1207 539.33 1207.45 540 1208 540C1208.55 540 1209 540.45 1209 541C1209 541.55 1208.1 542.45 1207 543C1205.63 543.69 1203.98 543.63 1201.75 542.83C1199.96 542.18 1197.94 540.83 1197.25 539.83C1196.56 538.82 1194.99 537.89 1193.75 537.75C1192.25 537.58 1191.42 536.75 1191.25 535.25C1191.03 533.3 1191.37 533.07 1193.75 533.5C1195.26 533.77 1197.09 533.59 1197.8 533.1C1198.68 532.49 1199.98 532.98 1201.8 534.6ZM1262.91 532C1264.61 532 1266 532.23 1266 532.5C1266 532.77 1266.34 533.73 1266.75 534.62C1267.38 535.97 1266.93 536.17 1264.01 535.87C1261.67 535.62 1260.4 534.92 1260.17 533.75C1259.9 532.39 1260.5 532 1262.91 532ZM791.16 546C792.17 546 792.99 546.56 792.98 547.25C792.97 547.94 791.95 549.52 790.73 550.78C789.5 552.03 787.71 553.04 786.75 553.03C785.79 553.01 784.94 552.27 784.88 551.37C784.81 550.47 785.78 548.89 787.04 547.87C788.3 546.84 790.16 546 791.16 546ZM1201.88 555C1202.36 555 1202.59 555.67 1202.38 556.5C1202.17 557.33 1203.13 558.67 1204.5 559.5C1205.88 560.33 1207 561.67 1207 562.5C1207 563.33 1206.33 564.23 1205.5 564.5C1204.67 564.77 1202.99 564.09 1201.75 562.98C1200.51 561.87 1198.94 560.97 1198.25 560.98C1197.56 560.99 1197 560.1 1197 559C1197 557.67 1197.67 557 1199 557C1200.1 557 1201 556.55 1201 556C1201 555.45 1201.4 555 1201.88 555ZM748 563.05C748.83 563.06 750.47 563.91 751.66 564.94C753.21 566.28 753.7 567.61 753.38 569.66C753.14 571.22 752.06 573.51 750.97 574.75C749.89 575.99 748.1 577 747 577C745.9 577 744.33 577.23 743.5 577.5C742.67 577.77 742 578.67 742 579.5C742 580.33 741.44 581.17 740.75 581.37C740.06 581.57 741.66 582.13 744.29 582.62C748.97 583.48 749.07 583.57 748.44 586.5C748.08 588.15 746.94 590.4 745.91 591.5C744.88 592.6 744.04 594.17 744.04 595C744.04 595.83 742.46 597.29 740.52 598.25C738.58 599.21 737 600.67 737 601.5C737 602.49 735.9 603.06 733.75 603.17C731.96 603.27 729.76 603.38 728.85 603.42C727.95 603.46 726.24 604.4 725.07 605.5C723.9 606.6 722.94 607.27 722.95 607C722.96 606.73 720.84 606.78 718.24 607.13C715.63 607.48 712.49 607.36 711.25 606.88C709.66 606.26 709.15 605.42 709.5 604C709.77 602.9 709.33 601.44 708.51 600.75C707.4 599.81 707.21 598.52 707.76 595.61C708.17 593.46 709.17 591.47 710 591.18C710.83 590.89 712.51 589.6 713.75 588.32C714.99 587.05 716.01 585.44 716.01 584.75C716.02 584.06 717.93 582.66 720.26 581.62C722.59 580.59 725.4 579.3 726.5 578.75C727.6 578.2 729.29 578.03 730.25 578.38C731.77 578.92 731.85 578.71 730.87 576.75C729.92 574.86 730.08 574.22 731.87 572.75C733.04 571.79 734.02 570.66 734.04 570.25C734.06 569.84 735.2 568.49 736.58 567.25C737.95 566.01 740.07 564.99 741.29 564.98C742.5 564.98 744.17 564.53 745 564C745.83 563.47 747.17 563.04 748 563.05ZM1194.43 576.58C1196.67 576.97 1199.96 577.9 1201.75 578.64C1203.54 579.39 1205 580.45 1205 581C1205 581.55 1207.47 582 1210.5 582C1213.53 582 1216 582.45 1216 583C1216 583.55 1216.9 583.77 1218 583.5C1219.1 583.23 1220 583.45 1220 584C1220 584.55 1220.67 585 1221.5 585C1222.33 585 1223.67 585.67 1224.5 586.5C1225.33 587.33 1226.45 587.77 1227 587.5C1227.55 587.23 1228 588.13 1228 589.5C1228 590.88 1228.45 591.77 1229 591.5C1229.55 591.23 1230.31 591.79 1230.69 592.75C1231.07 593.71 1232.08 595.05 1232.94 595.72C1233.8 596.39 1234.05 596.93 1233.5 596.92C1232.95 596.92 1233.17 597.68 1234 598.63C1234.83 599.57 1235.61 601.84 1235.75 603.67C1235.93 606.07 1235.37 607.56 1231.5 611.04L1233.75 611.02C1234.99 611.01 1236 611.45 1236 612C1236 612.55 1236.9 613.23 1238 613.5C1239.17 613.79 1240 614.83 1240 616C1240 617.1 1239.55 618.23 1239 618.5C1238.45 618.77 1238 620.13 1238 621.5C1238 622.88 1238.45 624 1239 624C1239.55 624 1240.18 625.24 1240.39 626.75C1240.61 628.26 1240.61 630.06 1240.39 630.75C1240.18 631.44 1239.33 632 1238.5 632C1237.67 632 1236.78 632.9 1236.5 634C1236.13 635.49 1235.16 636 1232.75 636.01C1230.2 636.01 1229.12 636.66 1227.75 639.01C1226.18 641.7 1225.5 642 1221 642C1217.14 642 1215.71 641.56 1214.75 640.05C1213.79 638.57 1212.87 638.27 1210.82 638.8C1208.52 639.4 1208.1 639.17 1207.82 637.1C1207.65 635.78 1206.83 634.37 1206 633.96C1205.17 633.55 1203.26 632.72 1201.75 632.11C1199.78 631.31 1199 630.29 1199 628.5C1199 626.83 1198.33 625.83 1197 625.5C1195.9 625.23 1194.33 624.33 1193.5 623.5C1192.67 622.67 1192 622.45 1192 623C1192 623.55 1190.67 622.76 1189.05 621.25C1187.43 619.74 1184.72 617.38 1183.04 616C1181.35 614.63 1179.97 613.16 1179.98 612.75C1179.99 612.34 1178.87 610.31 1177.5 608.25C1176.12 606.19 1174.99 603.26 1175 601.75C1175 600.24 1175.45 598.77 1176 598.5C1176.55 598.23 1176.78 597.55 1176.5 597C1176.22 596.45 1176.56 594.2 1177.25 592C1177.94 589.8 1178.84 588 1179.25 588C1179.66 588 1180.05 586.44 1180.11 584.54C1180.19 582.25 1180.87 580.72 1182.11 580.04C1183.15 579.47 1184.79 579.02 1185.75 579.04C1186.71 579.07 1188.14 578.37 1188.93 577.49C1190.03 576.26 1191.31 576.05 1194.43 576.58ZM1325.85 602.46C1327.31 602.83 1329.08 603.66 1329.78 604.32C1330.48 604.97 1330.82 606.29 1330.53 607.25C1330.23 608.23 1329.01 609.01 1327.75 609.03C1326.51 609.05 1324.6 608.15 1323.5 607.03C1322.12 605.63 1321.77 604.5 1322.35 603.39C1322.97 602.24 1323.95 601.98 1325.85 602.46ZM645.42 604.98C646.01 604.97 647.4 605.65 648.5 606.48C650.46 607.95 650.42 608.05 647 610.97C645.08 612.6 642.71 613.96 641.75 613.97C640.73 613.99 639.91 613.17 639.78 612.01C639.65 610.91 640.63 608.89 641.95 607.51C643.26 606.13 644.82 604.99 645.42 604.98ZM1009.05 605C1009.57 605 1010.45 606.13 1011 607.5C1011.55 608.88 1012 610.67 1012 611.5C1012 612.33 1011.55 613 1011 613C1010.45 613 1009.39 611.54 1008.64 609.75C1007.89 607.96 1007.46 606.16 1007.69 605.75C1007.91 605.34 1008.53 605 1009.05 605ZM1143.25 607.99C1143.94 607.99 1146.64 610.02 1149.25 612.49C1151.86 614.97 1154.45 617.9 1155 619C1155.55 620.1 1156 621.67 1156 622.5C1156 623.33 1155.33 624 1154.5 624C1153.67 624 1150.93 621.86 1148.4 619.25C1145.87 616.64 1143.39 613.49 1142.9 612.25C1142.4 611.01 1142 609.55 1142 609C1142 608.45 1142.56 608 1143.25 607.99ZM896.18 613C896.63 613 897 613.67 897 614.5C897 615.33 896.44 617.14 895.75 618.53C895.06 619.92 893.94 621.04 893.25 621.03C892.56 621.01 892 620.55 892 620C892 619.45 892.75 617.65 893.68 616C894.6 614.35 895.72 613 896.18 613ZM870.07 622C870.58 622 871 622.45 871 623C871 623.55 870.55 625.13 870 626.5C869.33 628.17 869.33 629 870 629C870.55 629 870.08 630.24 868.97 631.75C867.85 633.26 866.93 635.63 866.93 637C866.94 638.38 865.83 640.74 864.47 642.25C863.11 643.76 861.33 645 860.5 645C859.67 645 859 644.11 859 643C859 641.9 859.45 641 860 641C860.55 641 861 639.88 861 638.5C861 637.13 861.34 636 861.75 635.99C862.16 635.99 863.02 634.77 863.66 633.29C864.3 631.81 864.86 630.02 864.91 629.3C864.96 628.59 865.34 628 865.75 628C866.16 628 867.09 626.65 867.82 625C868.54 623.35 869.55 622 870.07 622ZM1288.82 623.18C1289.73 623.35 1290.59 624.29 1290.73 625.25C1290.91 626.42 1290.34 627 1289 627C1287.61 627 1287.03 626.36 1287.09 624.93C1287.15 623.56 1287.74 622.96 1288.82 623.18ZM993.5 625.17C994.05 625.08 996.3 625.69 998.5 626.52C1001.59 627.69 1003.01 629.05 1004.75 632.51C1005.99 634.98 1006.99 638.69 1006.98 640.75C1006.97 642.81 1006.19 646.18 1005.23 648.23C1003.99 650.89 1002.51 652.29 1000 653.15C998.08 653.81 995.83 654.4 995 654.47C994.17 654.53 992.94 654.9 992.25 655.29C991.56 655.68 989.36 655.21 987.35 654.25C985.35 653.29 982.79 651.15 981.67 649.5C980.55 647.85 979.49 644.59 979.31 642.25C979.07 639 979.35 638 980.5 638C981.33 638 982.23 637.33 982.5 636.5C982.8 635.59 983.69 635.23 984.75 635.58C986.42 636.13 986.42 636.06 984.75 634.08C983.08 632.1 983.08 631.86 984.75 629.02C985.95 626.99 987.45 625.93 989.5 625.68C991.15 625.48 992.95 625.25 993.5 625.17ZM852.58 626C853.91 626 854.99 626.34 854.98 626.75C854.98 627.16 854.64 628 854.23 628.62C853.83 629.23 852.49 630.02 851.25 630.37C849.99 630.72 849 630.56 849 630C849 629.45 849.26 628.33 849.58 627.5C849.91 626.67 851.26 626 852.58 626ZM1051.75 630.04C1052.16 630.06 1053.56 631.3 1054.86 632.79C1056.6 634.79 1057.04 636.15 1056.54 638C1056.17 639.38 1055.78 642.41 1055.68 644.75C1055.58 647.09 1055.16 649 1054.75 649C1054.34 649 1054 649.9 1054 651C1054 652.33 1053.33 653 1052 653C1050.9 653 1050 653.45 1050 654C1050 654.55 1048.65 655 1047 655C1045.35 655 1044.02 654.66 1044.04 654.25C1044.06 653.84 1042.69 652.83 1041 652C1038.48 650.77 1037.93 649.91 1037.96 647.25C1037.98 645.46 1038.34 643.83 1038.75 643.62C1039.16 643.41 1039.72 641.8 1040 640.04C1040.28 638.28 1040.16 636.65 1039.75 636.42C1039.34 636.19 1038.99 635.66 1038.99 635.25C1038.98 634.84 1040.22 633.73 1041.74 632.78C1043.92 631.42 1045.19 631.26 1047.75 632.03C1050.4 632.82 1051 632.72 1051 631.5C1051 630.67 1051.34 630.02 1051.75 630.04ZM1012.15 634C1012.79 634 1013.48 635.24 1013.68 636.75C1013.88 638.26 1013.79 639.73 1013.47 640C1013.15 640.27 1012.47 639.83 1011.96 639C1011.45 638.17 1011.02 636.71 1011.02 635.75C1011.01 634.79 1011.52 634 1012.15 634ZM1098 634C1099.24 634 1100.22 634.86 1100.58 636.25C1100.89 637.49 1100.69 638.95 1100.12 639.5C1099.42 640.17 1098.56 640.01 1097.5 639C1096.62 638.17 1095.93 636.71 1095.96 635.75C1095.98 634.68 1096.78 634 1098 634ZM679.17 636C680.73 636 681.99 636.34 681.98 636.75C681.98 637.16 681.64 638.02 681.23 638.67C680.83 639.31 679.26 640.09 677.75 640.42C675.57 640.88 674.97 640.62 674.83 639.17C674.74 638.16 675.04 637.03 675.5 636.67C675.96 636.3 677.61 636 679.17 636ZM1341.5 643C1343.06 643 1344 643.57 1344 644.5C1344 645.33 1343.55 646.23 1343 646.5C1342.45 646.77 1341.3 646.44 1340.46 645.75C1339.61 645.06 1338.93 644.16 1338.96 643.75C1338.98 643.34 1340.13 643 1341.5 643ZM802.35 644.58C803.53 644.95 804.65 645.31 804.83 645.37C805.02 645.44 804.9 646.74 804.58 648.25C804.22 649.95 803.33 651.02 802.25 651.04C801.29 651.07 799.94 650.39 799.25 649.54C798.32 648.39 798.28 647.48 799.1 645.95C799.9 644.45 800.77 644.08 802.35 644.58ZM683 652C683.27 651.97 684.49 652.74 685.71 653.72C686.92 654.7 687.94 656.06 687.96 656.75C687.98 657.44 687.44 658.57 686.75 659.26C686.06 659.96 684.26 661.08 682.75 661.76C681.24 662.44 678.88 663 677.5 663C675.25 663 675.01 662.62 675.14 659.25C675.22 657.19 675.67 654.94 676.14 654.25C676.61 653.56 677.45 653.23 678 653.5C678.55 653.77 679.79 653.56 680.75 653.03C681.71 652.5 682.73 652.03 683 652ZM1551 653C1552.65 653 1555.14 653.56 1556.53 654.25C1558.33 655.14 1559.05 656.29 1559.03 658.25C1559.01 660.01 1558.46 661 1557.5 661C1556.67 661 1554.88 660.55 1553.5 660C1552.13 659.45 1550.33 658.33 1549.5 657.5C1548.67 656.67 1548 655.33 1548 654.5C1548 653.5 1549 653 1551 653ZM632 659C633.11 659 634 659.67 634 660.5C634 661.33 633.33 662.23 632.5 662.5C631.67 662.77 630.77 663 630.5 663C630.23 663 630 662.1 630 661C630 659.67 630.67 659 632 659ZM743.25 661.03C743.66 661.01 744 661.67 744 662.5C744 663.33 743.1 664.45 742 665C740.67 665.67 739.83 665.67 739.5 665C739.23 664.45 739.79 663.34 740.75 662.53C741.71 661.72 742.84 661.05 743.25 661.03ZM1391.25 673.12C1391.66 673.05 1392.92 674.24 1394.03 675.75C1395.15 677.26 1396.05 679.29 1396.03 680.25C1396.02 681.21 1395.55 682 1395 682C1394.45 682 1393.44 682.24 1392.75 682.54C1392.06 682.84 1390.51 682.27 1389.29 681.29C1388.08 680.31 1386.95 678.3 1386.8 676.82C1386.59 674.84 1387.03 674.03 1388.51 673.69C1389.6 673.44 1390.84 673.18 1391.25 673.12ZM1196.25 675.98C1196.94 675.97 1198.45 676.91 1199.61 678.07C1200.77 679.23 1201.66 680.93 1201.59 681.84C1201.52 682.75 1200.58 683.65 1199.48 683.84C1198.37 684.04 1196.94 683.38 1196.23 682.34C1195.54 681.33 1194.97 679.49 1194.98 678.25C1194.99 677.01 1195.56 675.99 1196.25 675.98ZM675.73 676.98C676.15 676.97 677.29 677.54 678.25 678.23C679.91 679.43 679.89 679.67 678 682.75C676.61 685.02 675.24 686 673.5 686C671.67 686 671 685.47 671 684C671 682.9 671.34 682.01 671.75 682.03C672.16 682.04 673.05 680.92 673.73 679.53C674.41 678.14 675.31 676.99 675.73 676.98ZM1583.75 677.99C1585.48 678 1586 678.58 1586 680.5C1586 681.88 1585.55 683.23 1585 683.5C1584.45 683.77 1583.55 685.13 1583 686.5C1582.45 687.88 1581.66 688.99 1581.25 688.98C1580.84 688.98 1580.01 688.64 1579.41 688.23C1578.81 687.83 1578.02 686.04 1577.66 684.25C1577.12 681.57 1577.4 680.73 1579.25 679.49C1580.49 678.66 1582.51 677.99 1583.75 677.99ZM1089.5 684C1089.78 684 1090.78 684.27 1091.73 684.61C1092.69 684.94 1093.36 685.84 1093.23 686.61C1093.11 687.37 1093.45 688 1094 688C1094.55 688 1095.45 689.46 1096.01 691.25C1096.8 693.8 1096.7 694.82 1095.53 696C1094.21 697.33 1093.76 697.22 1091.49 695C1089.55 693.09 1088.95 691.5 1088.97 688.25C1088.99 685.91 1089.22 684 1089.5 684ZM620.25 691.08C621.86 691.03 623.21 691.62 623.5 692.5C623.77 693.33 623.77 694.67 623.5 695.5C623.23 696.33 622.1 697 621 697C619.8 697 618.6 698 618 699.5C617.45 700.88 616.21 702.01 615.25 702.02C614.29 702.03 612.66 701.46 611.64 700.77C610.35 699.89 609.97 698.81 610.39 697.25C610.76 695.87 611.77 695 613 695C614.15 695 614.92 694.4 614.8 693.58C614.69 692.8 615.25 691.94 616.05 691.66C616.85 691.38 618.74 691.12 620.25 691.08ZM834.78 696.21C836.28 696.3 839.41 697.65 841.75 699.19C844.78 701.19 846.14 702.86 846.5 705C846.77 706.65 846.68 708.56 846.29 709.25C845.9 709.94 845.57 711.24 845.54 712.14C845.52 713.05 843.92 715.2 842 716.93C840.08 718.65 837.49 720.95 836.25 722.03C835.01 723.12 832.88 724 831.5 724C830.13 724 828.77 724.45 828.5 725C828.23 725.55 826.54 725.99 824.75 725.97C822.96 725.95 820.6 725.26 819.5 724.43C817.93 723.24 817.5 721.74 817.5 717.42C817.5 714.4 817.96 711.61 818.53 711.21C819.1 710.82 819.48 709.6 819.4 708.5C819.31 707.4 818.92 705.38 818.53 704C817.92 701.82 818.32 701.25 821.66 699.57C823.77 698.51 826.74 697.72 828.25 697.82C829.76 697.92 831.24 697.56 831.53 697.02C831.83 696.47 833.29 696.11 834.78 696.21ZM883.75 701.15C884.99 701.07 885.95 701.46 885.89 702.02C885.83 702.59 886.96 703.49 891 705L887.98 709.25C886.08 711.92 885.37 713.69 886.08 714C886.9 714.37 886.9 715.1 886.1 716.75C885.49 717.99 884.44 718.99 883.75 718.98C883.06 718.97 880.74 718.41 878.6 717.73C876.29 717 874.25 715.55 873.6 714.18C872.75 712.39 872.8 711.71 873.84 711.18C874.66 710.76 874.95 709.63 874.59 708.25C874.27 707.01 874.56 705.13 875.23 704.07C875.91 703 877.6 701.95 878.98 701.72C880.37 701.49 882.51 701.23 883.75 701.15ZM1057 708.99C1057.83 708.97 1059.46 709.97 1060.62 711.22C1062.18 712.89 1062.88 715.25 1063.26 720C1063.54 723.58 1063.49 727.32 1063.14 728.32C1062.7 729.57 1061.71 730.04 1060 729.82C1058.01 729.57 1057.46 728.89 1057.32 726.5C1057.22 724.85 1056.09 720.66 1054.82 717.18C1052.8 711.68 1052.69 710.74 1054 709.94C1054.83 709.44 1056.17 709.01 1057 708.99ZM1559.61 711C1559.83 711 1561.24 711.54 1562.75 712.2C1564.26 712.86 1566.5 714.55 1567.71 715.95C1568.93 717.35 1569.94 719.06 1569.96 719.75C1569.98 720.44 1570.67 721.23 1571.5 721.5C1572.36 721.79 1572.89 722.96 1572.75 724.25C1572.52 726.35 1572.08 726.48 1566.25 726.25C1562.08 726.08 1559.28 725.42 1557.85 724.25C1556.67 723.29 1554.87 721.71 1553.85 720.75C1552.83 719.79 1552.22 718.33 1552.5 717.5C1552.78 716.67 1552.55 716 1552 716C1551.45 716 1551 715.55 1551 715C1551 714.45 1552.24 714.02 1553.75 714.04C1555.26 714.07 1557.11 713.39 1557.86 712.54C1558.61 711.7 1559.4 711 1559.61 711ZM1271 720C1272.1 720 1274.11 721.24 1275.47 722.75C1276.83 724.26 1277.95 726.06 1277.97 726.75C1277.99 727.44 1277.33 728 1276.5 728C1275.67 728 1275 727.55 1275 727C1275 726.45 1274.44 725.99 1273.75 725.97C1273.06 725.96 1271.7 725.17 1270.72 724.22C1269.74 723.28 1268.95 721.94 1268.97 721.25C1268.99 720.56 1269.9 720 1271 720ZM626.5 726.46C627.05 726.57 627.63 727.97 627.79 729.58C628.01 731.86 627.36 733.09 624.79 735.18C622.98 736.66 619.48 738.34 617 738.92C614.52 739.51 612.16 740.66 611.75 741.49C611.34 742.32 610.33 743 609.5 743C608.67 743 608 743.45 608 744C608 744.55 606.65 745 605 745C603.22 745 601.8 744.39 601.5 743.5C601.23 742.67 601.47 740.88 602.05 739.52C602.8 737.75 604.11 736.88 606.55 736.52C609.05 736.14 609.86 735.59 609.5 734.5C609.22 733.67 609.59 733 610.33 733C611.07 733 612.53 732.11 613.58 731.02C614.64 729.92 617.75 728.41 620.5 727.65C623.25 726.88 625.95 726.35 626.5 726.46ZM1287.1 728C1288.33 728 1289 728.7 1289 730C1289 731.1 1288.55 732 1288 732C1287.45 732 1287 732.67 1287 733.5C1287 734.33 1286.44 735.27 1285.75 735.61C1285.06 735.94 1284.05 735.73 1283.5 735.14C1282.83 734.42 1282.94 733.06 1283.85 731.03C1284.66 729.19 1285.94 728 1287.1 728ZM693.75 736.14C694.44 736.06 694.99 736.79 694.98 737.75C694.98 738.71 694.64 740 694.23 740.62C693.83 741.23 692.6 742.01 691.5 742.34C690.4 742.68 688.96 742.63 688.29 742.23C687.58 741.8 687.35 740.6 687.73 739.31C688.09 738.1 689.3 736.92 690.44 736.69C691.57 736.46 693.06 736.21 693.75 736.14ZM1022.3 753C1022.96 752.99 1023.96 753.78 1024.53 754.75C1025.1 755.71 1025.7 760.1 1025.88 764.5C1026.16 771.52 1025.97 772.6 1024.35 773.28C1023.22 773.75 1021.99 773.56 1021.18 772.78C1020.32 771.95 1019.81 768.63 1019.73 763.3C1019.66 758.78 1019.94 754.62 1020.35 754.05C1020.76 753.47 1021.64 753 1022.3 753ZM761 755.13C761.83 755.07 764.2 755.3 766.27 755.64C769.85 756.22 770.03 756.42 769.77 759.67C769.56 762.31 768.98 763.2 767.25 763.55C766.01 763.8 765 764.67 765 765.5C765 766.33 764.44 767.01 763.75 767.02C763.06 767.03 761.92 766.46 761.21 765.77C760.18 764.76 759.77 764.76 759.21 765.74C758.64 766.74 757.94 766.74 755.76 765.74C754.25 765.06 753.01 763.94 753.01 763.25C753 762.56 752.77 761.33 752.5 760.5C752.2 759.61 752.61 759 753.5 759C754.33 759 755 758.66 755 758.25C754.99 757.84 756.01 756.99 757.25 756.37C758.49 755.75 760.17 755.2 761 755.13ZM1426.25 771.02C1426.66 771.01 1427.45 771.9 1428 773C1428.55 774.1 1429 775.67 1429 776.5C1429 777.53 1428.14 777.92 1426.25 777.75C1424.15 777.56 1423.43 776.91 1423.19 775C1423.02 773.63 1423.47 772.17 1424.19 771.77C1424.91 771.36 1425.84 771.02 1426.25 771.02ZM995.5 774C996.33 774 997.22 775.01 997.49 776.25C997.75 777.49 997.98 780.19 997.99 782.25C998 785.34 997.65 786 996 786C994.22 786 994 785.33 994 780C994 775.33 994.33 774 995.5 774ZM986.2 791C986.75 791 987.4 793.14 987.65 795.75C987.9 798.36 988.53 802.41 989.05 804.75C989.57 807.09 990 809.9 990 811C990 812.11 989.33 813 988.5 813C987.67 813 986.33 812.33 985.5 811.5C984.67 810.67 984 809.1 984 808C984 806.9 984.34 805.8 984.75 805.56C985.16 805.32 985.2 803.19 984.83 800.81C984.46 798.44 984.4 795.26 984.69 793.75C984.98 792.24 985.66 791 986.2 791ZM1011.92 818.02C1012.24 818.02 1012.99 818.36 1013.59 818.77C1014.2 819.17 1014.76 822.31 1014.84 825.75C1014.95 830.16 1014.63 832 1013.75 832.02C1013.06 832.03 1011.93 831.46 1011.23 830.77C1010.54 830.07 1009.9 827.21 1009.82 824.42C1009.73 821.62 1010.04 819.03 1010.5 818.67C1010.96 818.3 1011.6 818.01 1011.92 818.02ZM1122.75 829.14C1123.44 829.06 1124.67 829.67 1125.5 830.5C1126.33 831.33 1127.45 832 1128 832C1128.55 832 1128.98 832.34 1128.97 832.75C1128.95 833.16 1130.12 834.85 1131.57 836.5C1133.27 838.44 1134.01 840.21 1133.66 841.5C1133.37 842.6 1133.77 844.74 1134.56 846.25C1135.37 847.79 1135.56 849 1135 849C1134.39 849 1134.49 850.17 1135.25 852.01C1136.25 854.43 1136.25 855.43 1135.25 857.01C1134.56 858.11 1134.01 859.79 1134.02 860.75C1134.03 862.07 1132.86 862.68 1129.27 863.24C1125.73 863.79 1123.92 863.59 1122.25 862.49C1121.01 861.67 1118.88 861 1117.5 861C1115.88 861 1114.74 860.27 1114.25 858.93C1113.84 857.79 1112.6 856.65 1111.5 856.4C1110.4 856.14 1108.94 854.6 1108.25 852.97C1107.23 850.54 1107.26 849.41 1108.41 846.75C1109.51 844.24 1109.56 843.11 1108.66 841.79C1108.02 840.85 1106.94 840.06 1106.25 840.04C1105.56 840.02 1105 839.44 1105 838.75C1105 838.06 1106.57 836.26 1108.5 834.75C1110.42 833.24 1112.58 832 1113.3 832C1114.01 832 1115.03 831.59 1115.55 831.08C1116.07 830.58 1117.63 829.97 1119 829.72C1120.38 829.47 1122.06 829.21 1122.75 829.14ZM1401 831.04C1401.28 830.98 1403.08 832.29 1405 833.95C1406.92 835.61 1408.84 836.98 1409.25 836.98C1409.66 836.99 1410 838.13 1410 839.5C1410 841.33 1409.47 842 1408 842C1406.9 842 1404.2 840.2 1402 838C1399.8 835.8 1397.91 833.59 1397.8 833.08C1397.69 832.58 1398.25 831.94 1399.05 831.66C1399.85 831.38 1400.72 831.11 1401 831.04ZM640.15 840C640.62 840 641.87 841.01 642.94 842.25C644.58 844.14 644.67 844.7 643.51 845.75C642.76 846.44 641.55 847.01 640.82 847.02C640.09 847.03 638.6 846.39 637.5 845.61C635.53 844.21 635.53 844.15 637.4 842.09C638.44 840.94 639.68 840 640.15 840ZM1411.75 858.96C1412.71 858.94 1415.18 860.4 1417.23 862.21C1419.41 864.14 1420.96 866.43 1420.98 867.75C1420.99 869.24 1420.41 870 1419.25 870C1418.29 869.99 1415.81 868.42 1413.75 866.5C1411.69 864.57 1410 862.1 1410 861C1410 859.78 1410.68 858.98 1411.75 858.96ZM640.46 887C641.31 887 641.99 887.56 641.97 888.25C641.95 888.94 640.94 891.2 639.72 893.27C638.48 895.39 636.73 897.04 635.75 897.02C634.67 897.01 634 896.23 634 895C634 893.9 634.34 893 634.75 892.99C635.16 892.99 636.27 891.64 637.21 889.99C638.15 888.35 639.62 887 640.46 887ZM1223.48 928C1224.32 928 1225.27 928.56 1225.61 929.25C1225.94 929.94 1225.6 931.76 1224.86 933.29C1224.11 934.82 1223.28 936.08 1223 936.08C1222.72 936.09 1221.93 935.51 1221.24 934.79C1220.33 933.85 1220.26 932.75 1220.97 930.75C1221.52 929.24 1222.64 928 1223.48 928ZM1170.76 937C1171.79 937 1172.51 937.73 1172.5 938.75C1172.48 939.71 1171.69 940.61 1170.73 940.75C1169.58 940.92 1169 940.33 1169 939C1169 937.76 1169.67 937 1170.76 937Z" />
	</g>
</svg>